<svg width="512" height="512" viewBox="0 0 512 512" fill="none" xmlns="http://www.w3.org/2000/svg">
<path fill-rule="evenodd" clip-rule="evenodd" d="M113.773 358.869C144.499 392.282 284.685 346.647 331.881 358.869C364.035 367.196 476.727 375.591 432.128 259.709C290.654 -107.885 16.4159 252.999 113.773 358.869Z" fill="#C986FF"/>
<ellipse cx="240.666" cy="103.344" rx="23.1737" ry="27.566" fill="white"/>
<path fill-rule="evenodd" clip-rule="evenodd" d="M50.861 448.47C43.7291 452.046 37.8731 456.344 40.0551 461.685C43.8575 470.993 55.8038 474.425 69.3887 477.169C88.3938 481.008 114.775 481.49 148.909 480.006C205.969 477.524 199.497 472.064 253.646 469.496C290.498 467.748 354.424 477.452 405.704 477.277C437.078 477.169 573.916 439.346 379.664 430.949C185.411 422.551 78.5697 434.576 50.861 448.47Z" fill="white"/>
<path fill-rule="evenodd" clip-rule="evenodd" d="M50.861 448.47C43.7291 452.046 37.8731 456.344 40.0551 461.685C43.8575 470.993 201.851 441.005 256 438.437C292.852 436.689 349.029 448.645 400.309 448.47C431.684 448.363 503.327 441.989 379.664 430.949C256 419.908 78.5697 434.576 50.861 448.47Z" fill="#E7EAEE"/>
<path fill-rule="evenodd" clip-rule="evenodd" d="M152.693 429.647C100.959 433.156 65.1717 439.385 50.0961 446.944C45.8772 449.06 42.7924 451.07 40.7289 453.239C38.0655 456.039 37.1644 459.122 38.4753 462.33C40.4497 467.164 44.4274 470.729 50.3426 473.44C54.9527 475.553 60.4286 477.082 68.5195 478.734L69.0508 478.842C87.2155 482.511 112.419 483.301 148.984 481.711L152.009 481.575C173.213 480.593 184.361 479.389 200.849 476.756L205.349 476.03C221.902 473.373 232.264 472.234 252.965 471.237L254.698 471.156C269.24 470.522 282.652 471.208 319.674 474.146L340.676 475.825C345.461 476.2 349.521 476.507 353.616 476.8L357.974 477.106C376.415 478.372 391.398 479.008 404.996 478.985L405.71 478.983C413.789 478.956 428.404 476.52 442.618 472.825L443.728 472.534C459.203 468.436 471.857 463.494 478.326 458.581C487.205 451.837 484.779 444.874 470.641 440.098C455.337 434.928 425.528 431.223 379.737 429.244C288.659 425.306 211.791 425.639 152.693 429.647ZM379.59 432.654L382.3 432.774C426.253 434.768 454.934 438.395 469.549 443.332L470.211 443.56C476.066 445.616 479.222 447.803 479.929 449.831C480.502 451.476 479.372 453.5 476.262 455.862C470.241 460.436 457.919 465.246 442.841 469.238L441.759 469.522C427.979 473.103 413.814 475.481 406.003 475.568L405.698 475.57C391.296 475.619 375.327 474.916 355.273 473.497L348.75 473.021C344.56 472.708 340.09 472.359 334.581 471.917L321.154 470.839C282.194 467.739 268.854 468.431 253.565 469.156L250.552 469.304C231.188 470.283 220.871 471.447 204.814 474.024L199.748 474.841C183.119 477.482 171.9 478.648 149.6 479.633L148.835 479.666C112.89 481.229 88.0539 479.113 70.2636 475.604L69.7266 475.496C52.7141 472.06 42.7582 469.522 39.8628 461.108C38.6642 457.624 43.5581 454.041 51.626 449.996C66.1677 442.704 101.628 436.532 152.924 433.053C211.886 429.054 288.63 428.722 379.59 432.654Z" fill="#00160A"/>
<path fill-rule="evenodd" clip-rule="evenodd" d="M221.052 90.0303C225.125 80.2843 236.096 73.9156 246.588 75.207C239.838 71.6387 232.013 66.0616 233.247 58.5319C234.195 52.7423 240.402 49.2331 246.226 48.4864C254.784 47.3891 264.448 51.2728 267.787 59.2226C271.126 67.1723 265.17 78.1628 256.548 77.8249C263.802 84.9952 266.434 96.461 263.033 106.073C261.326 110.899 253.935 111.181 250.154 107.727C246.373 104.273 245.287 98.8432 244.405 93.8005C240.152 96.5571 235.218 98.2566 230.168 98.7045C232.55 99.506 234.552 101.372 235.516 103.692C231.311 100.411 226.402 98.0357 221.218 96.7742C219.333 103.104 217.428 109.666 218.296 116.212C219.164 122.759 223.597 129.32 230.104 130.478C244.853 133.104 254.953 107.611 269.871 108.98C276.015 109.544 280.659 106.815 282.889 101.067C285.119 95.3186 283.099 88.2088 278.18 84.4881C275.255 84.6248 272.444 82.1949 272.159 79.2838C271.873 76.3727 274.159 73.444 277.055 73.0112C270.907 64.255 272.455 50.9888 280.453 43.8797C288.45 36.7707 301.817 36.7793 309.806 43.8986C305.432 36.8429 309.577 26.1829 317.517 23.7436C325.457 21.3043 334.777 27.5684 335.706 35.8161C336.635 44.0637 329.173 52.17 320.867 52.1368C322.249 58.5193 328.098 63.6669 334.609 64.2321C331.826 67.4479 326.495 64.4172 324.188 60.845C321.881 57.2728 319.691 52.6289 315.454 52.2333C320.659 58.3631 324.092 65.9767 325.241 73.9328C321.654 68.369 319.084 62.1531 317.695 55.6822C318.203 60.8579 317.236 66.1702 314.935 70.835C317.645 69.5324 320.638 72.9852 320.202 75.9584C319.766 78.9316 317.375 81.1677 315.242 83.2861C309.171 89.3159 303.899 98.4739 307.904 106.033C310.603 111.127 316.5 113.422 321.364 116.522C331.846 123.202 338.431 134.781 341.615 146.79C344.799 158.798 344.955 171.371 345.092 183.793C345.384 210.381 345.676 236.968 345.968 263.555C346.064 272.321 345.599 282.354 338.797 287.891C342.956 282.124 344.754 274.707 343.697 267.676C336.713 291.289 331.226 314.896 329.315 342.263C327.404 369.63 331.184 381.097 323.147 418.409C322.424 421.768 324.005 425.729 326.004 428.941C329.497 434.553 342.685 437.698 340.166 442.28C336.953 448.126 322.872 446.751 313.993 446.345C310.342 446.178 306.42 445.58 303.807 443.028C300.559 439.855 300.375 434.783 300.386 430.244C300.499 382.065 298.666 333.882 294.892 285.85C294.171 323.056 293.443 360.347 288.738 397.261C287.413 407.66 284.73 418.543 285.148 428.941C285.376 434.601 288.005 440.667 288.919 446.345C289.645 450.853 286.37 452.403 282.889 452.149C281.966 452.082 281.235 452.854 280.287 452.794C279.501 452.744 278.706 452.212 277.816 452.149C276.864 452.082 275.812 452.484 274.791 452.403C274.027 452.343 273.853 451.71 272.482 451.71C271.111 451.71 270.702 452.135 269.332 451.919C267.961 451.703 265.473 453.4 264.226 451.525C261.971 448.132 267.787 439.042 267.444 434.308C267.1 429.574 265.296 414.485 265.154 410.478C263.926 375.851 256.341 309.788 256.341 309.788C256.341 309.788 251.914 362.29 236.963 393.862C233.254 401.694 228.202 414.582 233.247 421.221C238.292 427.86 235.396 433.748 237.201 440.51C238.644 445.912 242.243 450.533 242.574 456.96C242.738 460.134 238.057 459.456 237.597 459.13C237.138 458.805 236.359 456.948 235.969 457.107C235.385 457.345 236.928 459.003 235.088 460.149C233.247 461.295 232.514 460.035 231.639 460.412C230.787 460.778 230.335 461.922 229.366 461.757C227.403 461.425 227.294 460.647 227.088 460.716C226.874 460.787 227.19 462.002 226.386 462.233C225.582 462.464 223.253 461.453 222.78 460.993C222.087 460.319 222.338 462.77 221.41 462.651C217.628 462.169 216.333 458.696 216.682 456.633C214.695 461.397 211.945 464.521 207.112 466.249C206.017 466.641 205.432 465.41 204.876 465.473C204.571 465.508 205.131 466.477 204.218 466.773C203.305 467.069 202.866 466.957 201.71 466.615C200.554 466.272 200.851 463.363 200.568 463.363C200.286 463.363 200.3 464.863 199.795 465.287C198.825 466.099 198.268 466.172 197.428 465.071C196.958 464.454 197.508 463.433 197.173 463.363C196.946 463.315 196.518 464.547 195.74 464.732C194.378 465.055 193.934 465.179 192.894 463.773C192.44 463.158 193.301 461.449 192.753 461.295C192.205 461.14 191.526 463.991 190.817 464.521C190.109 465.051 189.637 464.594 188.997 464.11C185.456 457.368 190.582 449.614 194.118 442.87C204.115 423.803 201.603 400.656 196.203 379.819C190.802 358.982 182.727 338.471 182.303 316.951C182.139 308.568 183.145 300.13 181.992 291.826C180.736 282.781 176.979 274.306 174.24 265.594C169.038 249.044 167.509 231.574 166.829 214.24C166.293 200.591 166.289 186.72 169.871 173.538C173.454 160.355 181.034 147.772 192.753 140.736C200.061 136.348 209.122 133.883 213.842 126.788C218.257 120.15 217.487 111.473 216.547 103.559C213.422 102.992 211.104 99.6202 211.695 96.5025C212.286 93.3849 215.677 91.0933 218.793 91.7064C217.443 89.0682 216.092 86.4299 214.742 83.7917C215.606 85.0475 219.778 92.5705 219.515 82.954C219.845 85.3428 220.432 86.0672 221.052 90.0303Z" fill="white"/>
<path fill-rule="evenodd" clip-rule="evenodd" d="M203.046 259.843C201.694 260.625 199.942 261.639 198.817 260.579C195.744 257.682 190.622 257.301 187.123 259.641L186.914 259.785L186.748 261.748C190.247 259.118 195.632 259.418 198.817 262.42C199.827 263.372 201.342 262.652 202.62 261.929L203.336 261.52C206.937 259.558 211.675 259.876 214.969 262.325C216.812 263.696 219.029 262.831 221.324 261.936C223.241 261.188 225.213 260.419 227.067 260.914C227.934 261.145 228.789 261.645 229.627 262.134C231.162 263.031 232.639 263.893 234.028 263.013C236.777 261.268 240.576 261.356 243.241 263.226L243 261.802L242.895 261.156C240.254 259.511 236.66 259.501 234.028 261.171C232.639 262.052 231.162 261.189 229.627 260.292C228.789 259.803 227.934 259.304 227.067 259.072C225.213 258.577 223.241 259.346 221.324 260.094C219.029 260.99 216.812 261.854 214.969 260.484C211.607 257.984 206.743 257.705 203.116 259.802L203.046 259.843ZM203.02 280.782C201.699 281.616 199.987 282.696 198.823 281.68C195.641 278.903 186.807 283.312 186.807 283.312C187.339 283.551 188.559 283.303 190.063 282.997C192.897 282.421 196.739 281.64 198.893 283.52C199.939 284.433 201.425 283.655 202.674 282.883L203.374 282.447C206.897 280.348 211.644 280.484 215.029 282.805C216.924 284.104 219.106 283.155 221.365 282.172C223.252 281.351 225.193 280.507 227.065 280.93C227.94 281.128 228.814 281.594 229.669 282.051C231.238 282.888 232.747 283.694 234.1 282.76L234.289 282.634C235.834 281.636 239.247 282.258 242.342 282.821C244.593 283.231 246.675 283.61 247.745 283.312C247.745 283.312 236.596 279.15 234.03 280.92C232.676 281.854 231.167 281.048 229.599 280.211C228.743 279.754 227.869 279.288 226.994 279.09C225.122 278.667 223.181 279.511 221.294 280.332C219.035 281.315 216.853 282.264 214.959 280.965C211.504 278.597 206.632 278.504 203.089 280.739L203.02 280.782ZM204.123 205.101C202.914 205.971 201.016 206.51 200.099 205.337C197.218 201.654 190.5 202.263 188.329 206.403C190.866 204.998 193.856 203.558 196.539 204.657C197.286 204.963 197.972 205.455 198.65 205.942C199.78 206.754 200.889 207.551 202.23 207.448C203.226 207.371 204.086 206.794 204.942 206.22C205.861 205.604 206.774 204.991 207.847 205.003C209.038 205.017 210.008 205.792 210.978 206.566C211.946 207.339 212.913 208.111 214.101 208.131C215.072 208.146 215.957 207.643 216.834 207.144C217.814 206.586 218.784 206.034 219.854 206.219C221.132 206.44 221.9 207.581 222.668 208.724C223.432 209.86 224.197 210.998 225.465 211.232C226.217 211.37 226.961 211.141 227.687 210.861L228.406 210.577C230.102 209.918 231.995 209.552 233.742 210.06C235.243 210.496 236.58 211.711 236.934 213.197C236.912 212.867 236.887 212.538 236.858 212.21L236.814 210.332C234.89 208.743 232.198 208.125 229.773 208.721C229.358 208.823 228.948 208.959 228.539 209.094C227.752 209.355 226.966 209.615 226.142 209.634C224.89 209.664 223.469 208.845 223.461 207.594L223.456 207.459C223.321 205.385 220.388 204.699 218.323 205.24C217.884 205.355 217.438 205.494 216.99 205.635C215.283 206.17 213.537 206.717 211.987 205.955C211.389 205.66 210.883 205.189 210.383 204.722C209.682 204.07 208.992 203.426 208.068 203.286C206.935 203.116 205.926 203.766 204.971 204.472L204.123 205.101ZM188.43 190.191C189.254 188.223 189.231 186.047 189.133 184.305C189.133 184.305 187.704 186.82 185.804 186.549L185.67 186.535C184.814 186.473 183.918 186.962 183.074 187.422C181.935 188.044 180.89 188.614 180.168 187.705C178.398 185.479 175.503 184.193 172.663 184.373C171.856 184.424 171.002 184.614 170.442 185.197C169.882 185.78 169.787 186.853 170.429 187.344C171.086 185.7 173.383 185.384 175.025 186.049C175.961 186.428 176.782 187.019 177.605 187.611C178.226 188.058 178.847 188.505 179.52 188.863C181.083 189.694 183.28 189.892 184.411 188.53L184.5 188.43C185.383 187.503 187.09 187.52 187.932 188.498C188.331 188.962 188.487 189.586 188.43 190.191ZM196.374 165.115C194.445 165.982 192.314 164.455 190.878 162.904L190.19 162.164C188.922 160.826 187.486 159.532 185.704 159.629C184.741 159.681 183.856 160.151 183.031 160.649C180.569 162.135 178.32 163.971 176.372 166.085C178.262 166.245 179.835 164.945 181.395 163.657C183.032 162.305 184.654 160.965 186.609 161.343C188.1 161.631 189.139 162.843 190.173 164.05C191.237 165.291 192.297 166.528 193.842 166.754C194.867 166.904 195.871 166.556 196.864 166.212C197.105 166.129 197.346 166.045 197.586 165.969C202.357 164.46 207.963 166.08 211.191 169.902C212.665 171.647 215.417 170.819 217.502 169.765L218.075 169.469C220.161 168.416 222.921 167.602 224.381 169.358L224.519 169.519C226.866 172.142 230.985 171.913 234.562 171.308L235.199 171.196C235.236 171.41 235.273 171.643 235.308 171.894L235.379 172.421C236.149 169.721 235.845 169.104 235.199 170.534C234.042 169.497 231.783 169.813 230.265 170.153L230.126 170.183C228.628 170.486 226.721 170.367 226.162 168.968C225.138 166.409 221.399 166.766 218.85 167.822L218.521 167.957C216.023 168.971 212.923 169.957 211.111 168.037C207.445 164.154 201.246 162.925 196.374 165.115ZM236.244 162.328C236.273 161.469 236.363 160.446 236.527 159.284L236.568 159.002C234.811 157.905 232.582 157.596 230.593 158.174C228.956 158.649 227.576 157.521 226.163 156.365C224.905 155.336 223.621 154.285 222.104 154.324C220.881 154.355 219.878 155.087 218.864 155.829C218.044 156.427 217.217 157.032 216.26 157.277C213.928 157.873 211.781 156.241 209.873 154.642L209.113 154.001C207.022 152.243 203.72 150.822 201.778 152.744L201.654 152.86C200.016 154.324 197.34 153.804 195.404 152.702C194.791 152.352 194.198 151.953 193.606 151.555C192.282 150.664 190.961 149.775 189.417 149.445C187.182 148.967 184.3 150.496 184.601 152.76C186.24 151.025 188.996 150.459 191.187 151.406C192.218 151.852 193.18 152.598 194.126 153.331C195.85 154.667 197.521 155.963 199.471 155.338C200.063 155.148 200.576 154.79 201.089 154.43C201.524 154.127 201.96 153.822 202.445 153.619C204.91 152.585 207.205 154.341 209.528 156.118C211.773 157.834 214.043 159.57 216.517 158.832C217.435 158.557 218.239 157.954 219.032 157.358C220.118 156.542 221.184 155.742 222.494 155.825C223.832 155.911 224.862 156.906 225.849 157.858C225.913 157.92 225.977 157.981 226.041 158.043L226.313 158.301C227.446 159.361 229.157 160.27 230.477 159.454C232.591 158.147 235.445 159.96 236.244 162.328ZM238.113 151.938C238.546 151.417 238.953 150.758 239.335 149.959C239.85 148.879 239.858 147.021 239.335 148.118C238.699 149.449 237.228 150.507 235.791 150.169C235.159 150.02 234.619 149.632 234.08 149.245C233.482 148.816 232.886 148.388 232.17 148.294C231.36 148.187 230.595 148.53 229.834 148.871C229.59 148.981 229.346 149.09 229.102 149.184C228.095 149.572 226.702 149.574 226.209 148.615C224.508 145.309 219.22 144.709 216.82 147.55C215.832 148.72 213.868 147.97 212.828 146.845C212.568 146.564 212.322 146.259 212.074 145.954C211.331 145.038 210.583 144.117 209.474 143.812C208.225 143.468 207.014 144.028 205.792 144.595C204.689 145.106 203.576 145.621 202.415 145.482C201.221 145.339 200.274 144.544 199.331 143.753C199.014 143.486 198.696 143.22 198.37 142.979C197.077 142.024 194.981 141.561 194.051 142.872C195.649 143.107 197.035 143.967 198.424 144.829C199.01 145.192 199.597 145.556 200.2 145.874C202.232 146.942 205.051 147.357 206.579 145.644L206.671 145.549C207.798 144.455 209.804 145.353 210.892 146.548C211.091 146.767 211.287 146.997 211.485 147.229C212.401 148.304 213.35 149.418 214.711 149.541C215.932 149.651 216.981 148.913 218.031 148.174C219.074 147.44 220.118 146.705 221.332 146.802C222.575 146.901 223.491 147.827 224.409 148.755C225.31 149.666 226.212 150.579 227.428 150.715C228.081 150.787 228.721 150.616 229.362 150.445C229.629 150.373 229.897 150.302 230.165 150.248C232.663 149.746 235.168 150.775 237.49 151.877L237.967 152.106L238.113 151.938ZM192.14 173.535C192.499 173.732 192.842 174.061 192.881 174.494C192.921 174.926 192.486 175.381 192.127 175.185C190.727 174.421 189.034 175.013 187.626 175.758C187.461 175.845 187.295 175.935 187.129 176.025L187.128 176.025C185.876 176.703 184.583 177.403 183.204 177.276C182.01 177.166 180.901 176.45 179.816 175.75C178.375 174.819 176.976 173.917 175.478 174.499C174.718 174.794 174.149 175.422 173.576 176.055C173.151 176.525 172.723 176.996 172.214 177.337C172.068 177.434 171.902 177.523 171.733 177.496C171.268 177.42 171.289 176.676 171.491 176.216C172.802 173.231 176.54 171.834 179.277 173.308C179.754 173.564 180.201 173.893 180.647 174.221L180.647 174.221C181.416 174.786 182.18 175.348 183.083 175.53C184.545 175.824 185.971 175.052 187.314 174.324C187.406 174.274 187.498 174.224 187.589 174.175C189.012 173.41 190.723 172.757 192.14 173.535ZM203.48 177.399C205.52 178.512 208.2 178.378 210.115 177.067C211.477 176.135 213.37 176.922 214.654 177.955C214.908 178.159 215.159 178.375 215.411 178.592L215.411 178.592C216.433 179.472 217.471 180.365 218.789 180.552C219.863 180.704 220.9 180.353 221.944 179.999C222.806 179.706 223.673 179.412 224.57 179.399C226.067 179.378 227.413 180.13 228.736 180.869L228.736 180.869L228.736 180.869L228.736 180.869L228.736 180.869C229.02 181.027 229.303 181.185 229.585 181.335C231.187 182.182 233.251 182.762 234.745 181.743L227.921 178.872C226.98 178.476 226.013 178.074 224.99 178.032C224.059 177.995 223.148 178.257 222.24 178.519C221.191 178.821 220.147 179.122 219.085 178.957C217.749 178.748 216.695 177.862 215.646 176.979C215.301 176.688 214.956 176.398 214.602 176.133C213.172 175.061 210.925 174.44 209.718 175.75C208.639 176.921 206.72 176.882 205.222 176.308C204.513 176.036 203.846 175.67 203.18 175.303C202.44 174.896 201.699 174.488 200.901 174.212C199.384 173.687 197.438 173.784 196.483 175.055C196.39 175.469 196.891 175.804 197.322 175.78C197.598 175.764 197.855 175.661 198.113 175.557L198.113 175.557L198.113 175.557L198.113 175.557L198.113 175.557C198.258 175.499 198.403 175.44 198.551 175.397C199.861 175.018 201.056 175.822 202.243 176.62L202.243 176.62C202.655 176.897 203.066 177.173 203.48 177.399ZM238.333 243.153C237.785 244.569 235.841 244.78 234.514 244.122C233.737 243.737 233.079 243.158 232.419 242.577C231.952 242.165 231.484 241.753 230.973 241.409C229.739 240.579 227.932 240.241 226.906 241.334C224.359 244.051 220.318 245.143 216.816 244.062C215.475 243.648 214.244 242.955 213.011 242.26L213.011 242.26C212.32 241.871 211.629 241.482 210.918 241.141C208.937 240.192 206.579 239.637 204.602 240.596C203.848 240.962 203.208 241.521 202.568 242.081L202.568 242.081L202.568 242.081C202.019 242.561 201.469 243.041 200.846 243.402C198.733 244.624 196.008 244.267 193.924 242.994C193.567 242.776 193.22 242.531 192.874 242.287C192.084 241.73 191.295 241.174 190.378 240.929C189.059 240.578 187.332 241.251 187.189 242.656C186.262 241.258 187.753 239.254 189.384 239.123C191.015 238.991 192.497 240.021 193.837 240.993C195.178 241.965 196.685 242.97 198.311 242.783C199.672 242.627 200.728 241.697 201.798 240.755C202.524 240.116 203.256 239.471 204.094 239.057C206.874 237.686 210.141 239.09 212.855 240.597C215.57 242.104 218.606 243.784 221.567 242.909C222.734 242.565 223.745 241.854 224.756 241.144C225.147 240.869 225.538 240.594 225.939 240.34C227.374 239.43 229.172 238.776 230.715 239.469C231.393 239.773 231.936 240.3 232.479 240.828L232.479 240.828C232.725 241.067 232.971 241.306 233.23 241.525C234.645 242.72 236.516 243.317 238.333 243.153ZM252.724 299.551C251.14 301.597 247.937 300.898 245.513 299.987C243.09 299.076 239.913 298.33 238.279 300.336C237.35 301.476 235.513 301.295 234.228 300.58C233.676 300.274 233.169 299.892 232.663 299.511C231.988 299.004 231.315 298.498 230.541 298.171C227.529 296.898 224.249 298.667 221.322 300.245C221.147 300.339 220.974 300.432 220.802 300.524C217.748 302.16 213.442 303.202 211.235 300.533C209.726 298.709 206.795 299.171 204.673 300.222C204.243 300.435 203.813 300.668 203.382 300.901L203.381 300.902C201.686 301.819 199.966 302.749 198.086 302.583C196.418 302.436 194.914 301.443 193.442 300.47C191.574 299.236 189.757 298.036 187.72 298.641C187.08 298.831 186.504 299.194 185.93 299.554C185.202 300.012 184.479 300.466 183.637 300.562C183.64 298.476 185.921 296.992 188.009 297.029C190.008 297.064 191.834 298.069 193.592 299.036L193.827 299.165C195.657 300.17 197.661 301.143 199.736 300.905C201.168 300.74 202.435 300.023 203.704 299.304C204.25 298.995 204.797 298.685 205.358 298.419C207.221 297.536 209.76 297.267 211.077 298.853C212.792 300.916 216.007 300.956 218.534 300.052C219.728 299.625 220.854 299.034 221.98 298.444C223.237 297.784 224.493 297.125 225.842 296.695C228.399 295.879 231.653 296.165 233.142 298.396C234.055 299.763 236.125 299.665 237.641 299.028C238.063 298.85 238.479 298.643 238.894 298.435L238.894 298.435L238.895 298.435C239.972 297.896 241.05 297.357 242.237 297.35C243.499 297.342 244.725 297.935 245.924 298.515C247.517 299.285 249.061 300.031 250.577 299.316L252.724 299.551ZM218.837 225.168C217.12 225.469 215.581 224.549 214.022 223.616C212.683 222.816 211.329 222.006 209.835 221.952C208.056 221.888 206.46 222.895 204.879 223.892C203.139 224.99 201.418 226.076 199.491 225.708C198.726 225.562 198.033 225.191 197.338 224.82C196.993 224.636 196.647 224.451 196.292 224.294C193.631 223.114 190.336 223.587 188.099 225.471C188.528 223.489 190.511 222.135 192.498 221.972C194.485 221.81 196.435 222.626 198.119 223.713C199.552 224.638 201.463 224.256 202.981 223.483C203.588 223.173 204.168 222.807 204.747 222.441C205.616 221.893 206.483 221.346 207.44 220.991C210.105 220.003 213.308 220.747 215.288 222.814C216.492 224.072 218.551 223.735 220.15 223.074C220.379 222.979 220.61 222.879 220.843 222.778L220.843 222.778C222.229 222.177 223.662 221.556 225.1 221.898C226.377 222.201 227.387 223.204 228.377 224.187C229.583 225.383 230.758 226.55 232.346 226.386C232.863 226.333 233.346 226.132 233.831 225.93C234.187 225.782 234.543 225.633 234.915 225.543C235.793 225.329 236.948 225.633 237.137 226.531C234.623 227.489 231.691 228.419 229.381 227.027C228.657 226.591 228.04 225.948 227.432 225.312L227.431 225.312C226.467 224.305 225.521 223.317 224.193 223.202C223.109 223.108 222.141 223.645 221.162 224.189C220.413 224.604 219.657 225.024 218.837 225.168ZM207.419 191.865C208.336 191.286 209.253 190.706 210.325 190.619C211.955 190.488 213.326 191.507 214.654 192.496L214.654 192.496C214.95 192.716 215.244 192.935 215.539 193.139C217.153 194.258 219.805 194.831 220.87 193.226C221.494 192.286 222.987 192.231 224.027 192.742C224.784 193.114 225.384 193.697 225.984 194.279L225.984 194.28C226.209 194.498 226.433 194.716 226.666 194.923C227.642 195.791 228.845 196.5 230.177 196.622C231.509 196.743 232.967 196.163 233.549 195.022C230.394 195.665 226.887 194.255 225.184 191.658C224.325 190.347 222.199 190.978 220.807 191.779C219.416 192.581 217.369 193.318 216.389 192.086C214.105 189.214 209.168 188.705 206.285 191.044C204.878 192.186 202.665 191.426 201.251 190.292C200.881 189.995 200.524 189.672 200.166 189.348C199.161 188.438 198.154 187.526 196.836 187.186C194.52 186.588 191.866 188.365 191.688 190.633C192.338 190.71 193.022 190.37 193.325 189.819C193.999 188.592 195.843 188.362 197.189 188.9C198.259 189.328 199.112 190.096 199.961 190.86C200.18 191.057 200.398 191.254 200.62 191.445C201.702 192.374 203.041 193.221 204.497 193.111C205.575 193.03 206.497 192.448 207.419 191.865Z" fill="#FFB61D"/>
<path fill-rule="evenodd" clip-rule="evenodd" d="M221.052 90.0303C225.125 80.2843 236.096 73.9156 246.588 75.207C239.838 71.6387 232.013 66.0616 233.247 58.5319C234.195 52.7423 240.402 49.2331 246.226 48.4864C254.784 47.3891 264.448 51.2728 267.787 59.2226C271.126 67.1723 265.17 78.1628 256.548 77.8249C263.802 84.9952 266.434 96.461 263.033 106.073C261.326 110.899 253.935 111.181 250.154 107.727C246.373 104.273 245.287 98.8432 244.405 93.8005C240.152 96.5571 235.218 98.2566 230.168 98.7045C232.55 99.506 234.552 101.372 235.516 103.692C231.311 100.411 226.402 98.0357 221.218 96.7742C219.333 103.104 217.428 109.666 218.296 116.212C219.164 122.759 223.597 129.32 230.104 130.478C237.605 131.813 243.904 125.876 250.245 119.898C256.373 114.121 262.54 108.307 269.871 108.98C276.015 109.544 280.659 106.815 282.889 101.067C285.119 95.3186 283.099 88.2088 278.18 84.4881C275.255 84.6248 272.444 82.1949 272.159 79.2838C271.873 76.3727 274.159 73.444 277.055 73.0112C270.907 64.255 272.455 50.9888 280.453 43.8797C288.45 36.7707 301.817 36.7793 309.806 43.8986C305.432 36.8429 309.577 26.1829 317.517 23.7436C325.457 21.3043 334.777 27.5684 335.706 35.8161C336.635 44.0637 329.173 52.17 320.867 52.1368C322.249 58.5193 328.098 63.6669 334.609 64.2321C331.826 67.4479 326.495 64.4172 324.188 60.845C323.86 60.3376 323.535 59.8085 323.205 59.2731L323.205 59.2722L323.204 59.2715L323.204 59.2705L323.203 59.2696L323.203 59.2686L323.202 59.2677L323.202 59.2667L323.201 59.2658L323.2 59.2648C321.213 56.0333 319.086 52.5724 315.454 52.2333C320.659 58.3631 324.092 65.9767 325.241 73.9328C321.654 68.369 319.084 62.1531 317.695 55.6822C318.203 60.8579 317.236 66.1702 314.935 70.835C317.645 69.5324 320.638 72.9852 320.202 75.9584C319.788 78.7858 317.605 80.9467 315.558 82.9736L315.338 83.1912L315.242 83.2861C309.171 89.3159 303.899 98.4739 307.904 106.033C309.977 109.947 313.939 112.208 317.869 114.452L317.869 114.452C319.055 115.129 320.237 115.804 321.364 116.522C331.846 123.202 338.431 134.781 341.615 146.79C344.799 158.798 344.955 171.371 345.092 183.793L345.968 263.555C346.064 272.321 345.599 282.354 338.797 287.891C342.956 282.124 344.754 274.707 343.697 267.676C336.713 291.289 331.226 314.896 329.315 342.263C328.695 351.148 328.674 358.357 328.654 365.318C328.613 379.8 328.575 393.21 323.147 418.409C322.424 421.768 324.005 425.729 326.004 428.941C327.518 431.373 330.852 433.342 333.94 435.165C337.977 437.549 341.593 439.684 340.166 442.28C337.256 447.574 325.433 446.946 316.632 446.479L316.63 446.479C315.714 446.43 314.83 446.383 313.993 446.345C310.342 446.178 306.42 445.58 303.807 443.028C300.559 439.855 300.375 434.783 300.386 430.244C300.499 382.065 298.666 333.882 294.892 285.85C294.171 323.056 293.443 360.347 288.738 397.261C288.344 400.352 287.83 403.486 287.314 406.636C286.092 414.086 284.855 421.633 285.148 428.941C285.282 432.266 286.244 435.731 287.201 439.175L287.201 439.175C287.873 441.594 288.542 444.002 288.919 446.345C289.645 450.853 286.37 452.403 282.889 452.149C282.429 452.115 282.016 452.291 281.6 452.468C281.182 452.645 280.762 452.824 280.287 452.794C279.904 452.77 279.519 452.631 279.121 452.487C278.703 452.337 278.272 452.181 277.816 452.149C277.353 452.116 276.866 452.195 276.37 452.274C275.848 452.359 275.315 452.444 274.791 452.403C274.479 452.378 274.265 452.258 274.028 452.124C273.685 451.931 273.293 451.71 272.482 451.71C271.9 451.71 271.492 451.786 271.109 451.858C270.591 451.955 270.121 452.043 269.332 451.919C268.874 451.847 268.291 451.988 267.672 452.139C266.437 452.438 265.056 452.773 264.226 451.525C262.947 449.6 264.265 445.841 265.583 442.085C266.588 439.22 267.592 436.356 267.444 434.308C267.297 432.285 266.883 428.372 266.447 424.24L266.447 424.24C265.862 418.702 265.235 412.773 265.154 410.478C263.926 375.851 261.248 340.956 255.832 306.733C246.931 312.774 237.207 317.604 227.014 321.049C223.431 322.26 222.587 326.852 222.338 330.623C220.518 358.231 218.823 386.781 228.309 412.774C240.619 380.653 249.882 347.367 255.932 313.507C252.968 341.002 246.341 368.1 236.28 393.862C232.892 402.538 228.202 414.582 233.247 421.221C236.417 425.392 236.452 429.267 236.488 433.249C236.509 435.604 236.53 437.997 237.201 440.51C237.751 442.568 238.613 444.512 239.488 446.486C240.911 449.694 242.369 452.981 242.574 456.96C242.738 460.134 238.057 459.456 237.597 459.13C237.403 458.993 237.152 458.582 236.897 458.165C236.549 457.596 236.194 457.015 235.969 457.107C235.761 457.191 235.822 457.455 235.905 457.811C236.054 458.458 236.275 459.41 235.088 460.149C233.947 460.859 233.231 460.645 232.644 460.469C232.284 460.362 231.972 460.268 231.639 460.412C231.305 460.555 231.033 460.818 230.767 461.075C230.354 461.473 229.955 461.857 229.366 461.757C227.974 461.522 227.514 461.062 227.291 460.839C227.2 460.747 227.148 460.696 227.088 460.716C227.016 460.74 227.004 460.896 226.989 461.101C226.96 461.499 226.917 462.08 226.386 462.233C225.582 462.464 223.383 461.533 222.91 461.073C222.568 460.74 222.424 461.151 222.254 461.638C222.08 462.135 221.879 462.711 221.41 462.651C217.628 462.169 216.333 458.696 216.682 456.633C214.695 461.397 211.945 464.521 207.112 466.249C206.441 466.489 205.961 466.12 205.562 465.812C205.311 465.618 205.091 465.449 204.876 465.473C204.765 465.486 204.769 465.624 204.774 465.807C204.784 466.126 204.797 466.585 204.218 466.773C203.305 467.069 202.866 466.957 201.71 466.615C200.94 466.387 200.814 465.02 200.733 464.132C200.692 463.687 200.663 463.363 200.568 463.363C200.44 463.363 200.373 463.67 200.291 464.046C200.192 464.501 200.071 465.055 199.795 465.287C198.825 466.099 198.268 466.172 197.428 465.071C197.166 464.727 197.221 464.258 197.263 463.897C197.296 463.611 197.321 463.394 197.173 463.363C197.085 463.344 196.967 463.517 196.81 463.748C196.562 464.112 196.217 464.619 195.74 464.732L195.694 464.743C194.368 465.057 193.922 465.163 192.894 463.773C192.669 463.468 192.767 462.892 192.857 462.371C192.948 461.844 193.029 461.372 192.753 461.295C192.462 461.213 192.135 461.977 191.785 462.791C191.476 463.512 191.15 464.272 190.817 464.521C190.166 465.009 189.714 464.661 189.148 464.226L189.142 464.221L189.139 464.219C189.092 464.183 189.045 464.146 188.997 464.11C185.859 458.136 189.527 451.367 192.864 445.21C193.292 444.419 193.715 443.638 194.118 442.87C204.115 423.803 201.603 400.656 196.203 379.819C194.807 374.433 193.232 369.069 191.657 363.704C187.139 348.311 182.617 332.908 182.303 316.951C182.245 314.002 182.332 311.047 182.419 308.092C182.58 302.648 182.74 297.209 181.992 291.826C181.1 285.402 178.946 279.266 176.792 273.128C175.913 270.624 175.034 268.119 174.24 265.594C169.038 249.044 167.509 231.574 166.829 214.24C166.293 200.591 166.289 186.72 169.871 173.538C173.454 160.355 181.034 147.772 192.753 140.736C194.884 139.457 197.164 138.341 199.442 137.226C204.976 134.517 210.499 131.814 213.842 126.788C218.257 120.15 217.487 111.473 216.547 103.559C213.422 102.992 211.104 99.6202 211.695 96.5025C212.286 93.3849 215.677 91.0933 218.793 91.7064L214.742 83.7917C214.824 83.9111 214.936 84.0871 215.071 84.2997L215.072 84.3009L215.072 84.3012C216.361 86.3258 219.753 91.654 219.515 82.954C219.666 84.0412 219.869 84.7836 220.104 85.6435C220.386 86.673 220.714 87.8709 221.052 90.0303ZM334.876 268.497C335.723 267.48 336.05 266.14 336.323 264.846C340.643 244.423 337.571 223.884 327.798 205.434C306.119 207.289 284.255 206.984 262.637 204.526C259.437 204.162 257.393 207.782 256.376 210.835C250.728 227.799 248.717 245.963 250.518 263.751C250.828 266.818 254.513 268.152 257.56 268.639C264.543 269.756 268.401 269.04 274.122 267.978C278.514 267.163 284.006 266.144 292.855 265.594C293.899 265.529 293.852 261.955 293.792 257.398C293.728 252.537 293.649 246.558 294.865 242.531C298.617 306.801 301.239 371.136 302.731 435.498C302.777 437.502 302.864 439.638 304.019 441.277C305.657 443.599 308.833 444.135 311.67 444.331C320.459 444.941 337.211 445.298 337.897 442.081C337.467 439.207 334.196 437.572 331.131 436.04C330.518 435.733 329.912 435.431 329.34 435.123C324.426 432.484 321.817 426.773 321.324 421.221C320.883 416.26 321.85 411.312 322.807 406.409L322.808 406.406L322.815 406.372L322.951 405.672C322.985 405.496 323.019 405.321 323.053 405.145L323.108 404.86L323.147 404.656C326.052 389.468 327.291 373.963 326.836 358.506C326.797 357.167 326.745 355.828 326.693 354.488V354.488V354.488V354.488V354.487V354.487V354.487V354.487V354.486V354.486V354.486V354.485V354.485V354.485V354.485V354.484C326.511 349.788 326.328 345.089 326.691 340.407C327.142 334.576 328.432 328.857 329.719 323.145L329.719 323.145C329.985 321.967 330.25 320.789 330.508 319.611C334.01 303.623 336.168 287.341 336.953 270.994C324.161 276.554 308.719 275.58 296.729 268.456C307.133 272.556 318.636 272.466 329.687 270.747C331.593 270.45 333.641 269.978 334.876 268.497ZM343.457 169.02C342.105 157.159 339.294 145.466 335.107 134.286C334.348 132.259 333.171 130.73 331.911 129.094L331.91 129.093C331.557 128.634 331.197 128.167 330.838 127.677C327.841 123.593 323.507 120.927 319.151 118.246L319.151 118.246C315.745 116.151 312.326 114.047 309.521 111.251C305.671 114.817 300.337 116.729 295.096 116.424C289.856 116.118 284.781 113.597 281.373 109.608C281.121 109.313 280.675 109.308 280.287 109.328C273.842 109.677 267.364 110.85 261.523 113.594C255.682 116.339 250.496 120.752 247.574 126.503C246.38 128.853 245.578 131.38 244.828 133.906C241.035 146.688 238.424 159.82 237.039 173.08C236.956 173.873 236.904 174.763 237.416 175.376C237.761 175.789 238.295 175.987 238.809 176.151C243.311 177.594 248.195 177.828 252.815 176.822L239.947 175.011C239.182 174.904 238.189 174.089 238.807 173.625C239.009 173.474 239.287 173.498 239.537 173.53L254.698 175.427C255.373 175.512 255.771 174.694 255.882 174.024C256.204 172.085 255.954 170.044 255.708 168.027C255.339 165.003 254.976 162.034 256.556 159.544C257.944 173.038 257.691 186.7 255.802 200.132C255.581 201.701 257.632 202.473 259.206 202.66C280.748 205.214 302.524 205.794 324.172 204.392C327.554 204.173 330.113 200.936 330.718 197.603C331.322 194.271 330.435 190.868 329.554 187.598L322.921 162.971C322.519 161.48 322.217 159.63 323.382 158.615L327.404 174.143C327.57 174.784 327.799 175.503 328.398 175.783C328.837 175.989 329.351 175.894 329.825 175.796L340.385 173.602C341.274 173.417 342.224 173.199 342.838 172.53C343.669 171.626 343.596 170.239 343.457 169.02ZM236.551 162.824C236.551 161.301 237.044 158.955 237.59 156.352C239.251 148.448 241.41 138.168 231.8 141.32L231.632 141.375C227.814 142.627 223.303 144.107 219.213 142.808C215.062 141.489 211.54 138.317 209.797 134.329C210.904 133.511 212.272 134.871 213.112 135.961C217.18 141.245 225.089 143.14 231.114 140.273C234.065 138.87 234.084 134.747 233.655 131.509C227.171 133.697 219.282 129.137 217.948 122.43C216.667 126.89 213.691 130.842 209.757 133.307C208.278 134.234 206.682 134.952 205.087 135.669L205.087 135.669L205.087 135.669L205.087 135.669L205.086 135.669L205.086 135.669L205.086 135.669L205.086 135.669L205.085 135.67L205.085 135.67L205.085 135.67L205.085 135.67L205.084 135.67L205.084 135.67L205.084 135.67L205.084 135.67C204.584 135.895 204.084 136.12 203.587 136.351C183.96 145.496 170.07 165.865 168.734 187.462C168.675 188.419 168.869 189.683 169.816 189.838L184.381 192.233C184.555 192.262 184.715 192.294 184.868 192.325C185.656 192.483 186.256 192.603 187.551 192.008C189.098 191.298 189.389 183.767 189.244 181.432C189.098 179.098 188.943 176.119 191.057 175.115C191.251 182.671 190.012 190.14 188.772 197.617C187.765 203.687 186.757 209.762 186.514 215.894C186.436 217.867 186.497 219.846 186.557 221.824C186.624 224.002 186.69 226.177 186.572 228.34C185.007 256.834 184.723 321.513 184.723 321.513C184.723 321.513 212.231 319.366 222.338 316.951C237.24 313.389 246.986 309.042 251.905 306.847C254.158 305.842 255.398 305.289 255.657 305.47C254.749 300.183 252.36 289.849 249.591 277.867C244.157 254.36 237.258 224.511 237.201 213.985C237.198 213.255 236.859 212.274 236.581 211.465C236.166 210.259 235.883 209.437 237.036 210.405L236.813 201C236.761 198.83 236.609 194.076 236.449 193.001C234.73 181.442 235.519 174.134 236.11 168.661C236.346 166.474 236.551 164.579 236.551 162.824ZM273.095 448.775C273.339 451.71 275.347 452.122 277.055 450.706C277.618 450.239 277.825 448.573 278.034 446.886L278.034 446.884C278.072 446.578 278.111 446.27 278.151 445.969C278.466 446.704 278.512 447.803 278.554 448.824C278.612 450.197 278.664 451.427 279.357 451.427C282.114 451.427 281.675 446.626 281.467 444.355C281.453 444.205 281.44 444.066 281.43 443.94C281.995 443.117 282.911 445.321 282.678 446.596C282.445 447.871 282.415 449.508 283.335 450.422C284.799 451.877 287.062 449.526 287.334 447.481C287.808 443.909 286.603 440.484 285.387 437.031C284.53 434.595 283.667 432.144 283.386 429.619C283.019 426.323 283.656 423.013 284.284 419.75L284.378 419.26C290.072 389.541 291.004 359.144 291.921 328.899L293.745 268.66C280.393 271.873 266.376 272.3 252.853 269.906C252.099 269.772 251.845 270.879 251.93 271.64C253.504 285.725 255.704 299.76 257.902 313.789C262.077 340.427 266.248 367.046 266.134 393.956C266.126 395.799 266.098 397.646 266.071 399.493C265.947 407.706 265.824 415.941 267.444 423.972C267.593 424.713 267.757 425.458 267.922 426.206L267.922 426.206C268.742 429.924 269.574 433.696 268.659 437.346C268.289 438.822 267.639 440.27 266.994 441.707C265.759 444.46 264.54 447.175 265.337 449.979C265.565 450.782 266.19 451.667 267.013 451.525C268.027 451.35 268.031 450.111 268.036 448.895C268.04 447.671 268.044 446.471 269.077 446.405C268.897 448.226 269.941 451.26 271.13 450.897C271.887 450.897 272.025 449.531 272.172 448.068C272.274 447.05 272.382 445.985 272.705 445.298C273.3 446.258 273.202 447.225 273.127 447.973C273.095 448.284 273.068 448.556 273.095 448.775ZM248.062 249.818C247.99 241.065 249.697 232.406 251.398 223.818C252.78 216.839 254.249 209.646 258.265 203.771C257.066 204.334 255.589 203.467 255.015 202.275C254.44 201.083 254.523 199.694 254.618 198.374L255.931 180.161C256.002 179.176 255.558 177.745 254.616 178.045C249.759 179.59 244.382 179.448 239.614 177.648C238.9 177.379 238.464 178.431 238.43 179.193C236.876 214.424 248.171 263.096 248.062 249.818ZM229.904 455.154C230.606 455.057 231.136 456.652 231.577 457.98C231.792 458.628 231.986 459.211 232.169 459.504C232.755 460.447 234.354 460.087 234.918 459.13C235.216 458.624 235.167 457.446 235.126 456.451C235.09 455.567 235.059 454.827 235.283 454.827C236.536 454.827 236.939 455.829 237.323 456.784C237.702 457.729 238.064 458.627 239.211 458.462C240.149 458.327 240.754 457.386 241.019 456.477C241.976 453.186 240.184 450.16 238.355 447.07C237.366 445.4 236.367 443.711 235.784 441.953C235.005 439.598 234.992 437.087 234.979 434.58C234.966 431.938 234.953 429.3 234.043 426.851C233.46 425.282 232.536 423.872 231.615 422.468C231.427 422.181 231.238 421.894 231.053 421.605C221.566 406.84 219.855 388.495 219.515 370.952C219.208 355.072 219.807 339.175 221.308 323.363L215.363 324.213L185.4 328.499C189.97 355.566 197.538 382.023 205.091 408.415C206.056 411.787 207.024 415.169 208.369 418.409C209.806 421.873 211.67 425.16 213.905 428.172C217.257 432.689 217.005 438.781 216.77 444.441C216.76 444.682 216.75 444.923 216.74 445.163C216.725 445.536 216.708 445.914 216.691 446.297C216.44 451.922 216.151 458.407 221.052 460.895C222.258 461.507 222.092 460.383 221.886 458.991C221.727 457.913 221.545 456.674 221.956 455.955C222.09 457.252 222.239 458.596 222.91 459.714C223.581 460.833 224.932 461.657 226.186 461.295C226.539 461.102 226.392 460.241 226.217 459.208C226.028 458.1 225.806 456.793 226.13 455.899C226.522 456.539 226.693 457.206 226.872 457.902C227.062 458.645 227.261 459.421 227.746 460.229C228.584 461.628 230.698 460.84 230.839 459.544C230.918 458.816 230.613 458.14 230.313 457.477C229.964 456.706 229.623 455.952 229.904 455.154ZM181.707 283.622C183.455 262.257 185.205 240.856 184.963 219.422C184.959 219.032 184.954 218.641 184.949 218.251L184.949 218.249C184.907 214.995 184.865 211.735 185.201 208.5C185.551 205.128 186.312 201.799 187.463 198.611L169.652 196.442C169.406 196.412 169.12 196.395 168.948 196.574C168.818 196.709 168.799 196.912 168.787 197.099C166.859 226.419 171.298 256.141 181.707 283.622ZM329.013 178.887L331.184 187.657C331.921 190.636 332.664 193.669 332.49 196.733C332.316 199.797 331.082 202.952 328.576 204.726C336.241 215.54 338.862 229.176 339.283 242.421C339.507 249.465 339.167 256.507 338.826 263.55L338.826 263.55C338.526 269.751 338.226 275.952 338.312 282.156C343.482 268.424 343.688 253.4 343.831 238.728L344.218 199.136C344.298 191.017 344.375 182.866 343.311 174.817L330.838 177.281C329.943 177.458 328.793 178.002 329.013 178.887ZM283.934 43.3882C278.267 46.2449 275.328 52.9707 275.46 59.3107C275.516 61.9563 276.263 64.9383 278.59 66.201C280.087 67.0133 282.05 66.8754 283.419 65.8619C284.788 64.8484 285.491 63.012 285.148 61.3445C284.986 60.5529 286.061 59.9507 286.802 60.2754C287.542 60.6002 287.9 61.455 288.005 62.2562C288.046 62.5649 288.06 62.8775 288.074 63.1896V63.1897C288.096 63.6876 288.119 64.1847 288.249 64.6641C288.607 65.9873 289.839 67.0268 291.205 67.158C292.571 67.2892 293.978 66.5033 294.583 65.2727C294.739 64.9548 294.847 64.6104 294.954 64.2674L294.954 64.2672L294.954 64.267L294.954 64.2668C295.138 63.682 295.32 63.1015 295.736 62.664C296.396 61.9697 297.992 62.3026 297.781 63.2369C297.35 65.148 299.366 67.0325 301.315 66.8182C303.264 66.604 304.764 64.7438 304.983 62.7969L304.999 62.6487C305.116 61.5835 305.267 60.212 306.303 60.1197C307.167 60.9799 307.365 62.268 307.56 63.5382C307.778 64.9569 307.993 66.3532 309.128 67.1056C310.738 68.173 312.96 66.9673 314.055 65.3762C315.619 63.1043 315.929 60.1355 315.369 57.4355C314.81 54.7355 313.457 52.2633 311.916 49.9757C310.756 48.2533 309.468 46.5959 307.882 45.2544C302.947 41.0792 295.819 40.5367 289.456 41.6901C287.554 42.0348 285.659 42.5183 283.934 43.3882ZM203.743 409.223C203.063 412.857 202.784 416.52 202.505 420.183C202.226 423.846 201.947 427.509 201.268 431.143C201.076 432.174 199.602 434.984 197.729 438.554C193.975 445.713 188.616 455.929 188.765 460.993C188.792 461.907 189.207 463.708 189.981 463.596C191.437 463.385 191.707 461.778 191.959 460.283C191.99 460.1 192.02 459.919 192.052 459.743C192.349 458.12 192.595 457.626 194.228 457.866C194.728 458.023 194.728 458.654 194.164 459.743C193.599 460.831 193.184 462.202 193.846 463.234C194.508 464.266 196.596 463.991 196.493 462.77C196.411 461.794 197.107 460.81 198.055 460.561C198.373 461.117 198.237 461.869 198.109 462.575C197.95 463.448 197.805 464.25 198.55 464.521C199.572 464.892 200.122 463.377 200.312 462.308C200.502 461.238 201.95 460.089 202.411 461.073C201.19 462.557 199.926 466.064 203.305 466.064C204.244 466.064 204.231 464.532 204.217 463.001C204.21 462.235 204.203 461.469 204.316 460.895C205.218 460.838 205.585 462.072 205.424 462.962C205.386 463.173 205.337 463.358 205.293 463.526C205.151 464.066 205.053 464.436 205.484 464.974C206.287 465.975 207.905 465.227 208.827 464.335C212.39 460.885 214.295 456.613 215.024 451.71C215.753 446.806 215.405 441.814 215.055 436.869C214.874 434.298 214.632 431.562 213.056 429.522C208.465 423.578 205.253 416.577 203.743 409.223ZM295.042 67.5875C293.274 69.4172 289.958 69.3978 288.211 67.5476C288.049 67.376 287.899 67.1913 287.749 67.0069C287.442 66.629 287.135 66.2519 286.729 65.9896C286.124 65.5993 285.169 65.5971 284.819 66.2261C283.358 68.8562 279.391 69.6474 277.031 67.779L281.925 86.4104C282.835 89.8787 283.842 93.5188 286.37 96.0632C287.967 97.6694 290.053 98.7039 292.186 99.4664C293.333 99.8763 294.529 100.219 295.747 100.185C297.109 100.147 298.418 99.6364 299.623 99.0001C304.679 96.3314 308.277 91.409 310.306 86.0672C312.335 80.7253 312.936 74.9531 313.177 69.2447C310.433 70.1796 307.109 68.9076 305.692 66.3802C303.799 68.2078 300.812 68.8021 298.363 67.8383C298.271 67.802 298.177 67.764 298.081 67.7255C297.031 67.3027 295.797 66.8063 295.042 67.5875ZM261.872 89.4986C260.195 84.0945 256.021 79.332 250.592 77.7262C248.631 77.1464 246.567 76.9787 244.523 77.024C234.761 77.2404 224.763 83.2175 221.983 92.5705C221.761 93.316 221.597 94.1642 221.988 94.8362C222.365 95.4833 223.142 95.766 223.865 95.9616C230.192 97.673 237.286 96.269 242.482 92.2767C242.527 92.2422 242.572 92.2074 242.617 92.1726C243.188 91.7307 243.781 91.273 244.49 91.1644C245.255 91.0473 246.174 91.5506 246.17 92.3242C246.136 98.9599 249.464 106.064 255.657 108.461C256.947 108.96 258.52 109.205 259.628 108.376C260.336 107.845 260.702 106.983 261.005 106.152C262.94 100.834 263.549 94.9026 261.872 89.4986ZM235.591 63.105C236.774 65.7778 238.952 67.8781 241.228 69.7124C245.19 72.9045 249.863 75.5914 254.949 75.7739C260.036 75.9564 265.489 72.985 266.799 68.0709C267.481 65.513 267.001 62.7827 266.186 60.264C265.334 57.6343 263.996 54.9802 261.63 53.5493C255.245 49.6885 246.973 49.1342 240.129 52.1085C238.669 52.7428 237.238 53.5562 236.241 54.7956C234.408 57.0731 234.409 60.4322 235.591 63.105ZM329.806 43.43C332.644 38.2035 332.099 31.3304 328.475 26.6148C327.951 25.9334 327.352 25.2818 326.589 24.8872C325.841 24.501 324.983 24.386 324.142 24.3549C319.894 24.1976 315.619 26.1547 312.964 29.4723C310.309 32.79 309.338 37.3876 310.426 41.4938C311.032 41.2077 311.262 40.4806 311.433 39.833C311.603 39.1854 311.841 38.4586 312.451 38.1825C313.062 37.9064 313.951 38.6332 313.543 39.1644C312.181 40.9388 311.529 43.243 311.76 45.4677C311.986 45.9546 312.687 45.4085 312.881 44.9081L313.752 42.6636C313.957 42.1358 314.187 41.5753 314.657 41.2588C315.127 40.9423 315.908 41.0331 316.097 41.5665L313.938 46.0282C313.66 46.6039 313.506 47.5054 314.116 47.698L320.139 43.0982C320.908 43.9705 320.201 45.3762 319.264 46.0663C318.977 46.2779 318.665 46.4657 318.354 46.6532C317.651 47.0772 316.951 47.4996 316.538 48.1925C318.582 48.4354 320.654 48.4451 322.7 48.2214C323.792 48.102 324.893 47.9117 325.89 47.451C327.619 46.6525 328.898 45.1027 329.806 43.43ZM284.36 109.764C286.557 112.032 289.763 112.978 292.855 113.627C297.44 114.59 302.702 114.944 306.333 111.984C307.077 111.378 307.77 110.395 307.366 109.524C305.66 105.844 305.027 101.675 305.565 97.6546C304.81 97.5274 304.205 98.228 303.714 98.8142C301.854 101.033 299.142 102.626 296.249 102.755C292.229 102.933 288.65 100.408 285.429 97.9995C285.184 100.718 284.432 103.391 283.223 105.839C282.579 107.142 283.349 108.719 284.36 109.764ZM185.166 325.633C186.208 326.291 187.538 326.201 188.765 326.086C207.06 324.382 225.918 322.194 241.892 313.12C228.526 318.053 214.278 320.021 200.162 321.957C195.04 322.659 189.827 323.361 184.723 322.539C183.715 323.248 184.123 324.975 185.166 325.633ZM234.864 132.001L235.283 137.13C235.318 137.564 235.358 138.013 235.573 138.392C235.834 138.852 236.312 139.14 236.77 139.406L240.363 141.501C240.536 141.601 240.736 141.706 240.926 141.645C241.155 141.572 241.248 141.305 241.309 141.073L244.576 128.639C241.254 129.492 238.002 130.618 234.864 132.001ZM186.003 196.482C186.308 196.494 186.623 196.505 186.906 196.39C187.67 196.079 187.807 195.075 187.828 194.25C181.478 193.69 175.173 192.613 168.998 191.033C168.085 191.701 168.259 193.217 169.059 194.017C169.859 194.817 171.038 195.079 172.153 195.271C176.723 196.061 181.369 196.289 186.003 196.482ZM216.071 100.818C217.034 101.153 217.934 100.093 218.144 99.0959C218.213 98.7664 218.248 98.4253 218.282 98.0851C218.35 97.3962 218.419 96.7108 218.779 96.1319C219.312 95.2758 218.577 94.0643 217.598 93.8193C216.619 93.5742 215.594 94.0319 214.789 94.6406C213.469 95.6393 212.458 97.4537 213.218 98.9234C213.756 99.9633 214.965 100.433 216.071 100.818ZM318.211 73.865C318.125 73.5254 318.002 73.1846 317.769 72.9227C317.081 72.1488 315.717 72.431 315.043 73.2173C314.369 74.0036 314.203 75.0915 314.074 76.1185C313.912 77.4003 313.768 78.6843 313.64 79.9699C313.607 80.306 313.735 80.7961 314.064 80.7176C316.956 80.0277 318.943 76.7443 318.211 73.865ZM277.634 81.57C277.849 81.4481 278.054 81.2891 278.164 81.0677C278.334 80.7266 278.243 80.3198 278.149 79.9508L277.592 77.7627C277.372 76.9013 277.036 75.9087 276.19 75.6336C275.245 75.3263 274.289 76.1482 273.853 77.0408C273.21 78.3605 273.269 80.1089 274.318 81.1371C275.171 81.9742 276.593 82.1599 277.634 81.57ZM319.51 50.5826C318.788 50.22 317.937 50.1195 317.15 50.3037C317.809 51.0411 318.924 51.3332 319.861 51.014C320.129 50.8702 319.855 50.3586 319.587 50.5011L319.51 50.5826ZM328.037 173.376L340.368 170.382C340.582 170.33 340.825 170.282 341.012 170.387C341.498 170.661 340.913 171.292 340.383 171.491C337.024 172.753 333.452 173.565 329.825 173.891C329.158 173.951 328.324 173.915 328.037 173.376ZM225.177 105.417C225.555 105.211 225.695 104.817 225.837 104.422C225.897 104.255 225.957 104.087 226.035 103.932C226.299 103.414 227.244 103.084 227.467 103.618C228.264 105.523 230.44 106.876 232.678 106.858C233.481 106.852 233.807 107.94 233.322 108.522C232.837 109.105 231.959 109.262 231.159 109.326C230.489 108.379 229.333 107.884 228.178 107.389C227.008 106.888 225.838 106.387 225.177 105.417ZM245.702 117.69C245.307 117.63 245.041 117.274 244.781 116.927C244.492 116.541 244.21 116.165 243.77 116.217C242.23 116.399 241.287 114.6 240.8 113.116C240.605 112.523 240.795 111.521 241.37 111.752C242.844 113.372 244.884 114.459 247.042 114.773C247.878 114.894 248.954 115.095 249.098 115.934L246.621 117.399C246.338 117.566 246.026 117.739 245.702 117.69ZM238.497 121.472C233.687 123.147 227.671 120.988 225.395 116.769C225.142 116.301 224.268 116.498 224.06 116.985C223.852 117.471 224.092 118.016 224.367 118.474C225.774 120.815 228.244 122.603 231.06 123.319C233.876 124.035 237.001 123.67 239.53 122.329C239.374 121.871 238.987 121.301 238.497 121.472ZM233.802 110.837C234.216 110.286 234.674 109.728 235.308 109.459C235.941 109.191 236.795 109.32 237.138 109.918C235.873 111.055 234.731 112.329 233.736 113.71C233.359 114.234 232.986 114.844 233.088 115.482C233.191 116.121 234.048 116.611 234.504 116.155C234.846 115.813 235.512 116.169 235.54 116.652C235.568 117.135 235.133 117.546 234.664 117.656C234.194 117.765 233.705 117.645 233.241 117.513C232.425 117.279 231.519 116.907 231.24 116.103C230.984 115.365 231.367 114.571 231.762 113.898C232.383 112.84 233.065 111.818 233.802 110.837ZM289.047 72.2926C290.02 72.3694 291.281 73.0191 290.885 73.8425C290.198 74.3773 289.252 74.1974 288.325 74.021L288.325 74.021L288.325 74.021L288.325 74.021L288.325 74.021L288.325 74.021L288.325 74.021L288.325 74.0209L288.324 74.0209L288.324 74.0209L288.324 74.0209L288.324 74.0209L288.324 74.0208L288.323 74.0207C288.048 73.9684 287.775 73.9164 287.511 73.8836C286.383 73.7436 285.254 73.994 284.129 74.2436C282.887 74.519 281.649 74.7934 280.424 74.541C280.092 74.3307 280.146 73.829 280.427 73.5623C280.707 73.2956 281.124 73.2025 281.517 73.1212C283.994 72.6087 286.518 72.0929 289.047 72.2926ZM303.801 72.9739C305.481 73.1807 307.199 73.1395 308.865 72.8522C309.12 72.0714 307.928 71.612 307.035 71.5258L302.848 71.1211C301.943 71.0337 300.969 70.9587 300.181 71.3709C299.393 71.7832 299.003 72.893 299.679 73.4447C300.628 72.5732 302.164 72.7673 303.528 72.9397C303.62 72.9513 303.711 72.9628 303.801 72.9739ZM305.692 79.1016C305.634 79.2762 305.403 79.3372 305.207 79.363C303.408 79.5997 301.514 79.1502 300.062 78.1418C299.716 77.9015 299.371 77.5908 299.334 77.1927C299.297 76.7946 299.763 76.3716 300.146 76.5585C302.15 77.5371 304.783 77.287 306.529 75.9521C306.944 75.6353 307.642 76.0199 307.699 76.5137C307.755 77.0075 307.363 77.4604 306.903 77.7184C306.628 77.8727 306.326 77.9781 306.024 78.0836C305.821 78.1545 305.619 78.2254 305.423 78.3113C305.34 78.5926 305.449 78.9143 305.692 79.1016ZM300.125 87.468C301.516 86.4658 302.787 84.7776 302.186 83.1823C299.691 86.53 295.353 88.4389 291.169 88.0295C290.454 87.9595 289.835 88.6482 289.771 89.3564C289.707 90.0647 290.063 90.7469 290.501 91.3103C292.528 93.9148 296.491 94.6207 299.529 93.2892C302.566 91.9577 304.627 88.9034 305.222 85.6693C305.344 85.0079 305.397 84.2733 305.02 83.7139C304.643 83.1545 303.678 82.9767 303.309 83.5407C303.955 84.4613 303.935 85.697 303.644 86.7802C303.04 89.0292 301.333 90.9609 299.161 91.8532C296.989 92.7454 294.401 92.5779 292.365 91.4132C292.039 91.2263 291.705 90.9888 291.591 90.6328C291.478 90.2768 291.721 89.8021 292.098 89.8219C294.939 89.9713 297.824 89.1253 300.125 87.468ZM290.779 77.2991C289.326 80.4607 285.204 81.2324 282.023 80.1755C281.11 79.8722 281.244 78.2993 282.059 77.7712C282.874 77.243 283.919 77.4376 284.854 77.6557C285.789 77.8737 286.827 78.0828 287.654 77.5758C287.979 77.377 288.236 77.0862 288.494 76.7948L288.494 76.7947C288.714 76.5454 288.935 76.2956 289.199 76.1026C289.771 75.6839 290.78 75.732 290.94 76.4461C291.004 76.734 290.902 77.0329 290.779 77.2991ZM292.876 76.3619L292.201 82.1388C292.15 82.5779 292.103 83.0431 292.292 83.444C292.581 84.053 293.375 84.3245 294.04 84.1635C294.705 84.0026 295.236 83.4934 295.579 82.9125C295.929 82.3202 295.706 81.2026 295.048 81.4324C294.872 81.494 294.746 81.6477 294.623 81.7984C294.474 81.9797 294.329 82.1567 294.104 82.1642C293.583 82.1814 293.592 81.4009 293.765 80.9193C294.486 78.9155 294.598 76.7049 294.081 74.6413C293.297 74.6141 292.965 75.5978 292.876 76.3619ZM244.087 107.23C246.326 108.048 248.345 109.456 249.881 111.27C250.061 111.482 250.24 111.713 250.285 111.986C250.351 112.391 250.06 112.821 249.658 112.914C247.35 110.311 244.155 108.498 240.726 107.845C241.252 106.712 242.907 106.8 244.087 107.23ZM230.062 372.615C229.448 372.564 228.818 372.511 228.298 372.293C228.016 372.176 227.769 372.008 227.522 371.841C227.285 371.681 227.049 371.521 226.782 371.405C226.237 371.166 225.427 371.2 225.177 371.683C226.981 373.315 229.826 374.021 232.353 373.465C231.938 372.773 231.018 372.696 230.062 372.615ZM320.125 339.978L324.665 338.998C325.058 338.913 325.622 338.982 325.645 339.476C323.585 341.244 320.884 341.813 318.469 340.987C318.795 340.311 319.499 340.113 320.125 339.978ZM256.48 229.981C255.571 230.203 254.656 230.427 253.882 230.914C255.613 231.732 257.716 231.192 259.478 230.436C263.442 228.736 266.877 225.983 269.275 222.588C270.204 221.272 271.002 219.651 270.439 218.166C269.538 218.332 269.117 219.274 268.774 220.068C266.755 224.75 262.312 228.463 257.098 229.827C256.893 229.88 256.687 229.931 256.48 229.981ZM334.017 232.061C333.544 232.749 332.464 232.545 331.691 232.205C325.698 229.566 321.698 223.103 322.082 216.678C322.099 216.394 322.137 216.083 322.349 215.889C322.56 215.695 322.998 215.75 323.042 216.031C323.435 218.566 323.836 221.126 324.793 223.513C325.75 225.9 327.327 228.133 329.592 229.42C330.061 229.687 330.56 229.915 331.059 230.143C332.162 230.647 333.261 231.15 334.017 232.061ZM273.795 343.216C272.349 342.828 270.894 342.437 269.431 342.588C272.308 344.977 276.669 345.627 280.184 344.191C280.312 343.628 279.35 343.579 278.759 343.719C277.115 344.108 275.46 343.663 273.795 343.216ZM287.208 216.952C287.791 217.075 288.254 216.484 288.555 215.97C289.818 213.818 290.642 213.034 292.291 211.465L292.401 211.361C292.488 212.556 292.582 213.254 292.675 213.952C292.769 214.65 292.862 215.348 292.95 216.543C292.978 216.93 293.015 217.342 293.254 217.649C293.919 218.506 295.328 217.77 295.894 216.845C297.208 214.699 296.818 211.663 295.004 209.918C294.539 209.471 295.226 208.63 295.86 208.755C296.494 208.879 296.882 209.509 297.153 210.095C297.938 211.798 298.395 213.729 297.979 215.558C297.563 217.386 296.12 219.056 294.263 219.329C293.608 219.425 292.879 219.325 292.401 218.867C291.876 218.364 291.779 217.575 291.712 216.852L291.494 214.497C290.877 214.871 290.483 215.504 290.09 216.132C289.659 216.823 289.231 217.509 288.514 217.846C287.385 218.376 285.941 217.71 285.356 216.608C284.772 215.506 284.919 214.131 285.445 213C285.972 211.87 286.834 210.935 287.693 210.03C288.213 209.484 288.767 208.921 289.485 208.688C290.203 208.454 291.128 208.675 291.439 209.362C288.679 210.011 286.524 212.663 286.454 215.495C286.44 216.09 286.626 216.828 287.208 216.952ZM198.968 363.365C199.079 363.522 199.253 363.6 199.421 363.664C202.593 364.876 206.01 363.236 209.039 361.629C209.384 361.446 209.792 361.022 209.561 360.68C209.443 360.506 209.218 360.488 209.024 360.498C207.849 360.562 206.712 361.089 205.59 361.609C204.063 362.317 202.562 363.013 201.025 362.516C200.907 362.479 200.79 362.434 200.673 362.389C200.314 362.251 199.954 362.114 199.584 362.174C199.094 362.254 198.658 362.93 198.968 363.365Z" fill="#00160A"/>
<path fill-rule="evenodd" clip-rule="evenodd" d="M247.061 65.4764C247.386 67.5334 248.596 69.4709 250.39 70.8084C251.131 71.3607 251.544 72.2406 251.463 73.0953C251.655 73.5094 250.775 73.5406 250.375 73.2666C248.034 71.6627 246.332 69.3421 245.628 66.7958C245.493 66.3097 245.409 65.7508 245.744 65.3478C246.079 64.9448 246.982 64.9808 247.061 65.4764V65.4764Z" fill="#00160A"/>
<path fill-rule="evenodd" clip-rule="evenodd" d="M238.449 90.7289C239.91 89.8286 241.481 88.6723 243.118 89.0761C238.456 94.3706 231.011 95.7601 224.361 94.584C223.807 94.486 223.192 94.3284 222.891 93.813C222.59 93.2976 222.975 92.3986 223.513 92.5728C228.447 94.1713 233.969 93.4896 238.449 90.7289V90.7289Z" fill="#00160A"/>
<circle cx="222.549" cy="113.323" r="2.73067" fill="#FFB61D"/>
<circle cx="243.029" cy="122.197" r="2.73067" fill="#FFB61D"/>
<circle cx="285.696" cy="87.04" r="1.70667" fill="#FFB61D"/>
<circle cx="308.224" cy="85.6747" r="1.70667" fill="#FFB61D"/>
</svg>
