<svg width="17" height="18" viewBox="0 0 17 18" fill="none" xmlns="http://www.w3.org/2000/svg">
<path d="M7.66699 13.1667H9.33366V9.83341H12.667V8.16675H9.33366V4.83341H7.66699V8.16675H4.33366V9.83341H7.66699V13.1667ZM8.50033 17.3334C7.34755 17.3334 6.26421 17.1181 5.25033 16.6876C4.23644 16.2431 3.35449 15.6459 2.60449 14.8959C1.85449 14.1459 1.25727 13.264 0.812826 12.2501C0.38227 11.2362 0.166992 10.1529 0.166992 9.00008C0.166992 7.8473 0.38227 6.76397 0.812826 5.75008C1.25727 4.73619 1.85449 3.85425 2.60449 3.10425C3.35449 2.35425 4.23644 1.76397 5.25033 1.33341C6.26421 0.88897 7.34755 0.666748 8.50033 0.666748C9.6531 0.666748 10.7364 0.88897 11.7503 1.33341C12.7642 1.76397 13.6462 2.35425 14.3962 3.10425C15.1462 3.85425 15.7364 4.73619 16.167 5.75008C16.6114 6.76397 16.8337 7.8473 16.8337 9.00008C16.8337 10.1529 16.6114 11.2362 16.167 12.2501C15.7364 13.264 15.1462 14.1459 14.3962 14.8959C13.6462 15.6459 12.7642 16.2431 11.7503 16.6876C10.7364 17.1181 9.6531 17.3334 8.50033 17.3334ZM8.50033 15.6667C10.3614 15.6667 11.9378 15.0209 13.2295 13.7292C14.5212 12.4376 15.167 10.8612 15.167 9.00008C15.167 7.13897 14.5212 5.56258 13.2295 4.27091C11.9378 2.97925 10.3614 2.33341 8.50033 2.33341C6.63921 2.33341 5.06283 2.97925 3.77116 4.27091C2.47949 5.56258 1.83366 7.13897 1.83366 9.00008C1.83366 10.8612 2.47949 12.4376 3.77116 13.7292C5.06283 15.0209 6.63921 15.6667 8.50033 15.6667Z" fill="#4B0088"/>
</svg>
