<svg width="380" height="380" viewBox="0 0 380 380" fill="none" xmlns="http://www.w3.org/2000/svg">
<path fill-rule="evenodd" clip-rule="evenodd" d="M208.01 146.02C208.824 144.881 210.875 143.8 212.67 143.888C214.465 143.977 216.156 144.72 217.767 145.509C216.537 146.406 215.153 147.096 213.692 147.54C213.23 147.681 212.185 148.096 209.928 147.164" fill="#E7EAEE"/>
<path fill-rule="evenodd" clip-rule="evenodd" d="M333.713 269.836C380 207.034 256.007 190.144 182.353 141.932C142.218 115.66 123.862 86.9204 89.1733 87.7009C18.257 89.2963 15.3555 223.254 30.4149 247.318C87.1993 338.058 314.555 295.83 333.713 269.836Z" fill="#C986FF"/>
<path fill-rule="evenodd" clip-rule="evenodd" d="M186.96 184.777C171.492 184.777 155.754 186.238 141.871 193.176C140.235 193.994 138.347 195.513 138.937 197.264C139.159 197.921 139.7 198.408 140.238 198.838C146.528 203.863 154.889 205.14 162.848 206.042C165.941 206.393 169.038 206.714 172.139 206.974C196.748 209.035 221.669 207.226 245.738 201.631C247.155 201.301 248.805 200.74 249.199 199.322C249.677 197.596 247.947 196.123 246.415 195.229C234.559 188.318 221.01 184.419 207.341 183.985C209.773 184.364 174.982 184.866 186.96 184.777Z" fill="white"/>
<path fill-rule="evenodd" clip-rule="evenodd" d="M98.2145 135.674C101.407 142.101 104.076 148.911 104.811 156.06C104.843 156.368 104.867 156.697 104.724 156.971C104.435 157.525 103.671 157.553 103.051 157.512C88.6761 156.565 73.8184 159.394 61.6226 167.118C57.4541 169.758 53.6248 172.94 49.3017 175.314C49.111 175.419 48.8938 175.525 48.6853 175.464C48.475 175.402 48.3483 175.193 48.2422 175C45.6153 170.224 43.2883 165.28 41.2795 160.209C40.5674 158.411 39.8887 156.569 39.7123 154.642C39.2682 149.789 42.4609 144.838 47.0421 143.274C58.7839 139.265 70.5257 135.257 82.2675 131.248C84.4137 130.515 86.5888 129.777 88.8491 129.613C91.1095 129.449 93.5023 129.923 95.2453 131.382C96.5868 132.504 97.434 134.102 98.2145 135.674Z" fill="white"/>
<path d="M141.38 288.268C141.404 289.479 138.5 290.378 137.613 289.551C136.725 288.724 136.62 287.38 136.573 286.17C135.941 269.861 135.815 254.048 136.151 237.731L93.2965 248.819L95.2112 292.144C95.2702 293.371 93.3677 293.828 92.4405 293.019C91.5133 292.21 91.3614 290.851 91.2756 289.625C90.3928 277.005 90.2367 264.327 89.5416 251.715C89.1734 245.034 80.5763 245.034 72.2212 236.794C68.0611 232.691 64.5111 227.031 64.5111 227.031C63.8508 242.354 62.5761 257.715 63.7253 273.009C63.8126 274.172 62.0109 274.644 61.1214 273.888C60.2674 273.162 60.0905 271.944 60.0016 270.819L59.9909 270.679C58.8072 254.669 57.4392 220.409 55.7334 197.967C55.0875 189.469 53.258 181.329 52.1867 176.499C51.7139 174.367 53.1939 174.404 56.1557 173.074C57.368 172.529 60.0778 176.522 61.3067 187.854L61.3683 188.451C61.8121 192.959 62.1993 201.468 62.5301 213.978C63.0662 216.845 66.2966 217.508 72.2212 215.966L72.4534 215.905C78.5258 214.285 87.8403 211.329 100.397 207.034L100.484 205.851C101.852 186.832 101.386 173.541 99.0857 165.977L99.014 165.745C95.3981 154.231 101.435 158.991 102.121 159.911C106.713 166.069 107.702 173.939 107.673 181.033L107.585 202.363C107.586 204.59 107.692 206.914 108.912 208.761C109.959 210.345 111.674 211.335 113.351 212.245L134.078 223.454C135.989 224.494 137.89 225.597 139.394 227.158C141.048 228.876 142.174 231.269 141.792 233.62C141.537 235.188 140.897 236.408 139.87 237.281L140.246 248.251C140.817 265.338 141.195 278.676 141.38 288.268Z" fill="white"/>
<path d="M242.673 289.281C242.65 290.492 244.54 290.885 245.428 290.058C246.315 289.23 246.42 287.887 246.467 286.676C247.099 270.368 247.732 254.048 247.396 237.731C261.708 242.014 276.02 246.297 290.331 250.58C289.666 264.435 289.001 278.289 288.336 292.144C288.277 293.372 290.179 293.828 291.106 293.019C292.034 292.21 292.185 290.851 292.271 289.625C293.154 277.005 293.732 264.363 294.005 251.715C294.039 250.14 295.286 248.89 296.447 247.822C303.977 240.892 311.506 233.961 319.036 227.031C319.696 242.354 319.451 257.715 318.302 273.009C318.214 274.172 320.016 274.644 320.905 273.888C321.795 273.132 321.95 271.842 322.036 270.679C323.888 245.632 322.632 220.433 324.501 195.387C324.95 189.367 325.6 183.271 327.813 177.652C323.851 176.731 277.561 167.206 281.483 161.185C276.198 165.933 275.845 173.939 275.874 181.033C275.903 187.995 275.932 194.957 275.961 201.919C275.971 204.278 275.936 206.791 274.635 208.761C273.546 210.409 271.735 211.413 269.995 212.354C263.344 215.95 256.693 219.547 250.041 223.143C247.942 224.279 245.807 225.441 244.153 227.158C242.499 228.876 241.373 231.27 241.755 233.62C242.137 235.971 244.372 238.056 246.738 237.739C244.231 238.272 244.473 237.707 243.677 237.281C243.342 254.614 243.008 271.948 242.673 289.281Z" fill="white"/>
<path d="M324.733 182.082C325.422 179.998 326.111 177.914 326.8 175.831C325.84 176.07 291.654 163.994 285.366 162.168C284.751 161.99 284.403 161.909 284.379 161.948C280.252 168.475 280.156 176.673 280.19 184.394C280.222 191.564 280.254 198.735 280.286 205.905C280.293 207.485 280.611 209.488 282.144 209.874C291.214 212.156 300.155 214.949 308.911 218.235C311.493 219.204 314.192 220.234 316.929 219.891C318.368 219.711 319.729 219.158 321.072 218.611C321.943 218.255 322.962 217.692 322.959 216.752C322.939 209.068 322.918 201.384 322.898 193.7C322.892 191.663 322.888 189.615 323.219 187.605C323.531 185.719 324.133 183.896 324.733 182.082Z" fill="white"/>
<path fill-rule="evenodd" clip-rule="evenodd" d="M190.204 0.34189C190.442 0.408161 190.819 0.363084 190.781 0.118816C190.639 0.0457474 190.479 -0.0294372 190.325 0.0116512C190.17 0.0527395 190.069 0.276595 190.194 0.377269L190.204 0.34189Z" fill="#00160A"/>
<path fill-rule="evenodd" clip-rule="evenodd" d="M341.49 160.655L336.862 172.639C336.416 173.792 335.921 175.012 334.911 175.73C333.225 176.93 330.894 176.256 328.967 175.497C325.045 173.953 321.199 172.229 317.353 170.505L317.353 170.505L317.353 170.505C313.174 168.631 308.995 166.758 304.721 165.116C296.512 161.963 287.803 159.656 279.013 160.054C277.61 160.117 276.456 158.794 276.208 157.417C275.959 156.041 276.38 154.641 276.797 153.306L279.94 143.235C281.01 139.804 282.135 136.273 284.458 133.524C286.781 130.775 290.635 128.98 294.057 130.12L335.467 143.926C340.342 145.551 343.652 150.909 342.909 155.974C342.672 157.59 342.079 159.131 341.49 160.655ZM286.835 132.476C283.456 135.408 281.854 139.829 280.458 144.069C279.261 147.703 278.117 151.357 277.247 155.081C277.054 155.903 276.876 156.764 277.08 157.583C277.283 158.402 277.987 159.161 278.835 159.143C287.17 158.968 295.429 160.904 303.288 163.672C309.044 165.699 314.625 168.171 320.206 170.643C322.245 171.546 324.285 172.449 326.333 173.331C327.982 174.041 329.658 174.743 331.434 175.021C332.866 175.245 334.717 174.915 335.1 173.522C335.767 171.095 336.761 168.779 337.755 166.461L337.755 166.461C338.409 164.936 339.063 163.411 339.625 161.852C341.041 157.925 341.854 153.556 340.506 149.606C340.089 148.381 339.447 147.197 338.446 146.373C337.56 145.642 336.453 145.241 335.369 144.854C321.996 140.084 308.531 135.572 294.982 131.322C293.502 130.857 291.955 130.39 290.421 130.63C289.074 130.84 287.863 131.584 286.835 132.476ZM326.8 175.831L324.733 182.082C324.133 183.896 323.531 185.719 323.22 187.605C322.888 189.615 322.893 191.663 322.898 193.7L322.959 216.752C322.962 217.692 321.943 218.255 321.072 218.611C319.729 219.158 318.368 219.711 316.929 219.891C314.225 220.23 311.557 219.228 309.003 218.27L308.911 218.235C300.155 214.949 291.214 212.156 282.144 209.874C280.611 209.488 280.293 207.485 280.286 205.905L280.19 184.394C280.156 176.673 280.252 168.475 284.379 161.948C284.653 161.515 285.116 161.034 285.589 161.23C283.298 165.224 281.864 169.707 281.414 174.289C281.207 176.397 281.205 178.519 281.204 180.637L281.187 205.942C281.186 207.217 281.434 208.835 282.669 209.157C290.511 211.197 298.375 213.244 305.921 216.197C306.218 216.313 306.517 216.431 306.816 216.55C310.57 218.033 314.487 219.581 318.422 218.856C320.275 218.514 322.301 217.257 322.264 215.375L321.981 200.935C321.83 193.235 321.727 185.273 324.719 178.176C325.14 177.176 325.746 176.093 326.8 175.831ZM278.667 212.917C288.467 214.56 298.088 217.209 307.318 220.809C308.831 221.398 310.333 222.013 311.834 222.629L313.975 223.505C314.46 223.028 313.732 222.306 313.104 222.026C302.712 217.395 291.668 214.148 280.377 212.404C279.735 212.305 278.885 212.322 278.667 212.917ZM292.823 144.907C292.933 145.433 292.73 145.991 292.391 146.402C292.022 146.85 291.393 147.159 290.875 146.909C290.153 146.56 290.205 145.447 290.632 144.754C290.878 144.356 291.252 143.989 291.711 143.96C292.235 143.927 292.713 144.38 292.823 144.907ZM291.283 146.153C291.656 146.32 292.141 145.953 292.096 145.538C292.051 145.123 291.498 144.875 291.17 145.123C290.842 145.371 290.91 145.986 291.283 146.153ZM314.177 153.062C314.727 152.433 314.843 151.285 314.216 150.75C314.095 150.646 313.951 150.57 313.798 150.55C313.451 150.506 313.131 150.748 312.871 151.003C312.296 151.571 311.823 152.556 312.308 153.217C312.75 153.82 313.688 153.621 314.177 153.062ZM313.175 151.676C313.307 151.539 313.466 151.392 313.646 151.42C313.991 151.473 313.984 152.035 313.816 152.369C313.627 152.745 313.165 153.093 312.878 152.801C312.583 152.5 312.882 151.979 313.175 151.676ZM324.447 155.286C324.759 155.545 324.798 155.991 324.762 156.384C324.72 156.843 324.598 157.313 324.292 157.671C323.985 158.028 323.46 158.244 322.999 158.1C322.555 157.96 322.27 157.515 322.243 157.072C322.215 156.629 322.406 156.195 322.672 155.83C323.073 155.28 323.917 154.846 324.447 155.286ZM323.844 155.99C323.572 155.807 323.087 156.113 323.26 156.384L323.119 156.664C322.769 156.705 322.835 157.294 323.179 157.371C323.523 157.448 323.85 157.166 323.988 156.858C324.119 156.566 324.116 156.174 323.844 155.99ZM304.726 139.43C304.371 139.495 304.01 139.616 303.759 139.874C303.507 140.132 303.4 140.555 303.59 140.861C303.753 141.125 304.079 141.235 304.382 141.308C304.825 141.416 305.297 141.486 305.732 141.35C306.168 141.214 306.55 140.817 306.533 140.363C306.504 139.595 305.485 139.293 304.726 139.43ZM305.018 140.206C305.331 140.031 305.786 140.229 305.87 140.576C305.345 140.892 304.635 140.871 304.129 140.524C304.235 140.199 304.673 140.035 304.968 140.209L305.018 140.206ZM244.193 288.268L245.196 236.267C245.993 236.694 246.075 237.78 246.056 238.681L244.972 289.126C246.435 289.227 247.002 287.281 247.063 285.82C247.753 269.464 248.151 253.096 248.258 236.725C245.891 237.042 243.657 234.958 243.275 232.607C242.892 230.256 244.018 227.863 245.672 226.145C247.327 224.427 249.462 223.265 251.561 222.13L271.515 211.34C273.255 210.4 275.065 209.396 276.155 207.747C277.456 205.778 277.49 203.264 277.48 200.906L277.394 180.02C277.365 172.925 277.718 164.92 283.003 160.172C279.081 166.193 278.066 173.647 278.038 180.827C278.027 183.534 278.142 186.242 278.257 188.95L278.257 188.95C278.448 193.425 278.638 197.897 278.26 202.354C278.082 204.465 277.744 206.65 276.546 208.399C275.582 209.807 274.142 210.811 272.697 211.721C269.27 213.88 265.623 215.699 261.981 217.516L261.981 217.516L261.981 217.516L261.981 217.516L261.98 217.516L261.98 217.516L261.98 217.516L261.98 217.516L261.98 217.516L261.98 217.516L261.98 217.516L261.98 217.516L261.979 217.516L261.979 217.516L261.979 217.516C256.268 220.365 250.569 223.208 245.75 227.343C244.533 228.388 243.628 230.763 245.177 231.182C260.631 235.365 275.893 240.25 290.902 245.816C292.064 246.246 293.261 245.351 294.176 244.519L318.273 222.602C319.142 221.811 320.653 222.331 321.283 223.323C321.913 224.314 321.914 225.563 321.894 226.737L321.114 272.945C322.745 271.375 322.972 268.888 323.082 266.63C323.597 256.005 323.717 245.363 323.837 234.721V234.721C324.011 219.338 324.185 203.958 325.552 188.641C325.931 184.391 326.524 179.857 329.333 176.639C327.12 182.258 326.47 188.353 326.021 194.374C325.084 206.93 324.932 219.526 324.781 232.121C324.63 244.649 324.479 257.176 323.556 269.666C323.47 270.828 323.315 272.118 322.425 272.874C321.536 273.631 319.734 273.159 319.821 271.996C320.97 256.702 321.216 241.341 320.555 226.018L297.967 246.808C296.806 247.877 295.559 249.127 295.525 250.702C295.252 263.35 294.674 275.992 293.791 288.612C293.705 289.838 293.553 291.197 292.626 292.006C291.699 292.815 289.796 292.358 289.855 291.131L291.851 249.566L248.916 236.717C249.252 253.035 248.619 269.355 247.987 285.663C247.94 286.873 247.835 288.217 246.947 289.044C246.06 289.871 244.17 289.479 244.193 288.268ZM295.582 248.176L320.044 224.952C320.462 224.556 320.913 223.966 320.624 223.469C320.238 222.804 319.22 223.271 318.65 223.787L292.677 247.326C276.824 241.662 260.775 236.544 244.568 231.984C244.125 232.591 244.372 233.496 244.911 234.02C245.45 234.544 246.199 234.78 246.919 235L291.106 248.474C291.662 248.643 292.268 248.85 292.568 249.347C292.804 249.739 292.795 250.224 292.778 250.68C292.593 255.604 292.279 260.524 291.966 265.444L291.966 265.444L291.966 265.444L291.966 265.444L291.966 265.445L291.966 265.445L291.966 265.445L291.966 265.445L291.966 265.445L291.966 265.446L291.966 265.446L291.966 265.446L291.966 265.446L291.966 265.447L291.966 265.447C291.395 274.408 290.824 283.366 291.031 292.338C293.698 287.661 293.863 282.024 293.96 276.645L294.403 252.256C294.429 250.801 294.525 249.18 295.582 248.176ZM326.176 149.38C326.352 149.492 326.564 149.53 326.771 149.532C327.397 149.536 328.04 149.162 328.254 148.564C328.468 147.966 328.143 147.194 327.537 147.032C327.072 146.908 326.575 147.144 326.236 147.491C325.734 148.005 325.571 148.997 326.176 149.38ZM327.037 147.777C327.432 147.68 327.688 148.318 327.417 148.627C327.146 148.936 326.647 148.905 326.29 148.708L327.025 147.792L327.037 147.777ZM284.985 139.424L285.942 138.69C286.132 138.544 286.337 138.392 286.57 138.385C286.961 138.374 287.274 138.808 287.28 139.235C287.285 139.661 287.056 140.053 286.776 140.35C286.382 140.768 285.799 141.057 285.284 140.849C284.769 140.642 284.536 139.769 284.985 139.424ZM286.677 139.44C286.578 139.202 286.215 139.182 286.095 139.408L286.044 139.454C285.657 139.498 285.348 139.94 285.413 140.359C285.923 140.251 286.389 139.912 286.677 139.44ZM301.777 156.701C301.929 156.411 302.029 156.067 301.939 155.75C301.753 155.1 300.883 154.957 300.299 155.251C299.551 155.629 299.119 156.795 299.73 157.384C300.338 157.97 301.379 157.459 301.777 156.701ZM300.882 156.722L300.31 156.987C300.039 156.749 300.072 156.233 300.37 156.034C300.667 155.835 301.127 156.023 301.218 156.381L300.883 156.721L300.882 156.722ZM300.029 149.427C299.794 148.889 300.088 148.263 300.573 147.871C300.856 147.641 301.234 147.465 301.618 147.513C302.176 147.584 302.53 148.128 302.474 148.615C302.418 149.102 302.053 149.522 301.64 149.856C301.155 150.248 300.265 149.964 300.029 149.427ZM301.144 148.265C300.932 148.371 300.816 148.576 300.727 148.773L300.754 148.858C300.431 148.953 300.7 149.444 301.038 149.402C301.375 149.359 301.569 149.053 301.698 148.779C301.753 148.662 301.807 148.531 301.76 148.411C301.683 148.211 301.355 148.16 301.144 148.265ZM290.569 155.822C290.836 155.396 290.95 154.789 290.642 154.394C290.165 153.783 289.202 154.195 288.698 154.782C288.503 155.009 288.323 155.275 288.296 155.58C288.249 156.127 288.757 156.61 289.279 156.625C289.8 156.639 290.282 156.281 290.569 155.822ZM289.321 155.212L289.82 154.852C290.025 155.048 290.064 155.407 289.908 155.647C289.752 155.887 289.419 155.978 289.172 155.848C289.001 155.668 289.097 155.303 289.332 155.242L289.321 155.212ZM295.25 136.128C295.386 136.313 295.398 136.55 295.38 136.772C295.335 137.302 295.112 137.849 294.64 138.164C294.167 138.479 293.416 138.471 293.055 138.052C292.591 137.512 292.998 136.704 293.563 136.252C294.043 135.867 294.894 135.644 295.25 136.128ZM294.453 136.695C294.217 136.53 293.78 136.745 293.875 137.001L293.72 137.042C293.589 137.287 293.594 137.587 293.731 137.829C294.013 137.744 294.306 137.636 294.488 137.423C294.67 137.209 294.689 136.86 294.453 136.695ZM336.304 149.926C335.96 149.392 335.106 149.454 334.559 149.795C334.032 150.124 333.646 150.879 334.083 151.314C334.304 151.536 334.656 151.577 334.974 151.552C335.402 151.519 335.839 151.378 336.132 151.074C336.424 150.769 336.531 150.279 336.304 149.926ZM335.151 150.22L335.694 150.481C335.482 150.828 335.013 151.007 334.614 150.892C334.558 150.601 334.814 150.293 335.119 150.283L335.151 150.22ZM317.217 144.242C316.749 144.569 316.101 144.511 315.605 144.232C315.418 144.127 315.236 143.979 315.172 143.769C315.05 143.376 315.389 142.994 315.728 142.774C316.26 142.428 317.036 142.255 317.466 142.728C317.851 143.153 317.685 143.916 317.217 144.242ZM317.019 143.42C317.045 143.185 316.72 142.979 316.567 143.155L316.537 143.099C316.264 143.094 315.995 143.266 315.878 143.52C316.072 143.646 316.278 143.776 316.507 143.789C316.737 143.803 316.993 143.655 317.019 143.42ZM321.307 163.888C320.836 163.557 320.092 163.731 319.818 164.237C319.543 164.743 319.801 165.462 320.335 165.677C320.797 165.863 321.381 165.653 321.618 165.216C321.855 164.779 321.714 164.174 321.307 163.888ZM320.403 165.088C320.291 164.708 320.652 164.274 321.045 164.313C321.151 164.701 320.824 165.144 320.422 165.157L320.403 165.088ZM329.578 167.395C329.804 167.586 329.855 167.946 329.836 168.263C329.785 169.141 329.031 170.085 328.321 169.717C327.913 169.505 327.729 168.915 327.85 168.428C327.97 167.941 328.338 167.568 328.754 167.375C329.02 167.251 329.348 167.2 329.578 167.395ZM328.712 168.193C328.47 168.262 328.358 168.65 328.518 168.866L328.35 169.085C328.677 169.141 329.105 169.044 329.169 168.679C329.217 168.403 328.954 168.124 328.712 168.193ZM331.095 161.351C331.197 161.465 331.325 161.555 331.467 161.614C331.718 161.718 332.012 161.718 332.264 161.612C332.795 161.39 333.044 160.672 332.763 160.172C332.482 159.672 331.736 159.505 331.266 159.838C330.796 160.17 330.711 160.924 331.095 161.351ZM331.624 161.229C331.294 160.985 331.517 160.344 331.928 160.354C332.112 160.465 332.251 160.647 332.308 160.852C332.119 161.027 331.884 161.152 331.632 161.21L331.624 161.229ZM280.714 153.18C280.845 152.727 281.061 152.196 281.587 152.083C282.151 151.962 282.687 152.466 282.718 152.967C282.75 153.472 282.346 154.002 281.768 154.083C281.19 154.164 280.572 153.671 280.714 153.18ZM281.537 153.027C281.369 153.221 281.601 153.552 281.879 153.514L281.846 153.418C282.027 153.378 282.12 153.165 282.015 153.032C281.91 152.899 281.646 152.896 281.537 153.027ZM284.728 145.713C284.863 145.064 284.226 144.382 283.571 144.473C282.823 144.577 282.441 145.658 282.956 146.21C283.472 146.762 284.575 146.453 284.728 145.713ZM283.823 146.009C283.536 146.076 283.218 145.811 283.248 145.518C283.278 145.226 283.669 145.035 283.909 145.205C284.148 145.375 284.079 145.826 283.795 145.902L283.823 146.009ZM309.107 158.864C309.174 158.635 309.317 158.43 309.507 158.295C310.142 157.843 311.169 158.481 311.089 159.277C311.009 160.074 309.878 160.477 309.346 159.898C309.099 159.63 309.005 159.22 309.107 158.864ZM310.381 159.387C310.446 159.144 310.193 158.878 309.958 158.942C309.724 159.005 309.628 159.366 309.799 159.546C309.969 159.726 310.317 159.631 310.381 159.387Z" fill="#00160A"/>
<path fill-rule="evenodd" clip-rule="evenodd" d="M86.4769 134.463C86.3691 134.543 86.298 134.654 86.2448 134.768C86.0042 135.283 86.1517 135.956 86.7017 136.247C87.2517 136.538 88.1376 136.227 88.1595 135.673C88.1666 135.496 88.0937 135.324 88.0111 135.162C87.8757 134.896 87.701 134.63 87.4209 134.467C87.1409 134.304 86.7324 134.272 86.4769 134.463ZM86.8431 135.293C86.6743 135.247 86.7275 134.977 86.9048 134.981C87.3601 135.1 87.5724 135.645 87.2919 135.975C87.0672 135.793 86.909 135.551 86.8446 135.292L86.8431 135.293ZM65.8335 143.401C65.4154 143.554 64.9468 143.338 64.601 143.07C64.2221 142.778 63.8917 142.386 63.8445 141.93C63.7973 141.473 64.1276 140.965 64.6173 140.922C64.9606 140.891 65.2801 141.08 65.5464 141.285C65.9034 141.559 66.2355 141.896 66.3434 142.315C66.4514 142.735 66.2639 143.244 65.8335 143.401ZM64.2848 141.819L65.2316 142.699L65.2508 142.731L65.6177 142.487C65.501 142.214 65.3731 141.928 65.1214 141.752C64.8696 141.577 64.4537 141.571 64.2848 141.819ZM55.5121 148.326C55.8832 147.956 55.73 147.298 55.4717 146.833C55.285 146.498 55.0385 146.172 54.6923 146.037C54.3461 145.902 53.8876 146.031 53.751 146.393C53.6659 146.618 53.7188 146.873 53.7811 147.106C53.8947 147.532 54.0489 147.97 54.3661 148.259C54.6833 148.549 55.2073 148.63 55.5121 148.326ZM54.2502 147.037C54.2136 146.961 54.1807 146.877 54.1944 146.794C54.2085 146.707 54.2765 146.633 54.3581 146.616C54.8796 146.771 55.2358 147.386 55.1278 147.945C54.7528 147.753 54.4398 147.429 54.2502 147.037ZM58.9694 156.985C58.4161 157.413 57.6302 156.826 57.2925 156.221C57.0646 155.812 56.8937 155.374 56.7859 154.921C56.7195 154.641 56.7121 154.28 56.9697 154.142C57.0943 154.076 57.2463 154.086 57.3861 154.111C58.3219 154.276 59.1084 155.061 59.2588 155.978C59.318 156.34 59.2631 156.758 58.9694 156.985ZM57.4275 154.984C57.382 155.124 57.4815 155.265 57.5751 155.38L58.5227 156.537C58.6856 155.854 58.2703 155.086 57.602 154.833C57.5218 154.848 57.4523 154.908 57.4275 154.984ZM139.642 227.215C140.153 228.433 139.657 230.155 138.367 230.448C125.258 233.421 112.316 237.121 99.6205 241.527C95.4138 242.987 90.7304 244.518 86.6436 242.752C85.0557 242.065 83.7123 240.931 82.3944 239.812L68.6519 228.148C73.2589 234.32 78.9583 239.678 85.4077 243.902C86.9508 244.913 88.5844 245.878 90.4035 246.192C92.6674 246.584 94.9674 245.932 97.172 245.286L135.762 233.987C137.304 233.536 139.234 232.056 138.25 230.79C139.524 231.259 139.43 233.067 139.098 234.38L97.3508 246.543C95.3728 247.119 93.3216 247.702 91.2807 247.418C89.2532 247.136 87.4485 246.028 85.7328 244.914C78.432 240.175 71.2809 234.612 67.2374 226.918C67.1193 226.694 67.0017 226.465 66.8832 226.235C65.8249 224.179 64.6985 221.991 62.5673 221.204C62.2001 238.467 62.4745 255.743 63.3898 272.985C63.4512 274.142 61.6373 274.554 60.7855 273.766C59.9336 272.979 59.8382 271.692 59.7996 270.534L57.576 203.759C57.2634 194.373 56.871 184.656 52.6934 176.239C57.6061 183.898 58.0417 193.486 58.3291 202.573L60.4457 269.497C60.4981 271.156 60.7802 273.167 62.3165 273.806L61.5045 220.44C64.0993 220.206 65.9541 222.742 67.4932 224.847L67.5221 224.886C71.9898 230.995 78.2639 235.505 84.4279 239.907C87.0255 241.762 90.2023 243.711 93.2058 242.624C108.182 237.203 123.453 232.593 138.93 228.82C136.947 225.9 133.986 223.799 131.009 221.896C125.669 218.484 120.056 215.497 114.241 212.972C114.106 212.913 113.97 212.854 113.834 212.795C111.139 211.629 108.333 210.415 106.553 208.102C104.157 204.991 104.213 200.716 104.313 196.795C104.451 191.409 104.47 186.019 104.369 180.632C104.232 173.284 103.803 165.666 100.379 159.158C104.34 162.639 104.728 168.552 104.829 173.815L105.327 199.616C105.389 202.837 105.622 206.45 108.029 208.599C108.935 209.408 110.062 209.915 111.171 210.414L111.248 210.449C120.135 214.45 128.709 219.143 136.866 224.471C137.974 225.194 139.132 225.997 139.642 227.215ZM92.7612 291.862C93.3713 292.391 94.6524 292.105 94.6093 291.319C93.8268 277.035 92.9592 262.754 92.0066 248.479C92.4292 248.208 92.8098 248.882 92.8401 249.368L95.1354 286.204C95.2554 288.129 95.374 290.078 95.0028 291.974C94.7886 293.067 93.0196 293.208 92.2052 292.414C91.3909 291.619 91.2883 290.4 91.2323 289.289L89.1752 248.453C89.1491 247.934 89.3953 247.19 89.9164 247.337L92.0314 289.673C92.0707 290.459 92.1511 291.333 92.7612 291.862ZM134.773 236.195L136.393 285.233C136.428 286.295 138.062 286.663 138.914 285.999C139.766 285.336 139.984 284.177 140.098 283.12C140.629 278.196 140.207 273.237 139.786 268.294L139.786 268.294C139.721 267.529 139.656 266.765 139.595 266.002C138.804 256.187 138.604 246.326 138.996 236.488C139.007 236.202 138.552 236.1 138.333 236.29C138.113 236.481 138.08 236.798 138.063 237.084C137.498 246.611 138.161 256.142 138.824 265.674C139.081 269.362 139.338 273.051 139.523 276.739C139.649 279.253 139.738 281.812 139.082 284.246C138.952 284.726 138.763 285.239 138.327 285.495C137.891 285.752 137.169 285.535 137.152 285.039L135.566 237.248C135.549 236.739 135.269 236.034 134.773 236.195ZM49.7293 158.673C49.6238 158.649 49.5101 158.636 49.4115 158.684C49.2514 158.763 49.183 158.973 49.1596 159.165C49.0542 160.033 49.6057 160.94 50.3712 161.156C50.6974 161.249 51.1531 161.121 51.1711 160.748C51.2169 159.799 50.5692 158.867 49.7293 158.673ZM49.8268 159.904C49.6749 159.757 49.6087 159.51 49.6633 159.294C50.1723 159.419 50.5761 159.951 50.6006 160.529C50.2767 160.47 49.9825 160.235 49.8305 159.913L49.8268 159.904ZM80.2105 154.731C80.3041 154.563 80.4356 154.418 80.5922 154.307C81.1327 153.927 81.9654 154.065 82.3558 154.599C82.7462 155.133 82.6276 155.973 82.1046 156.377C81.5815 156.78 80.7434 156.68 80.3297 156.164C80.012 155.768 79.9627 155.175 80.2105 154.731ZM81.1218 155.902C81.5016 155.96 81.857 155.514 81.7171 155.155C81.5773 154.795 81.0147 154.709 80.7747 155.011C80.5347 155.312 80.7419 155.844 81.1218 155.902ZM52.4467 165.813C52.32 165.876 52.2079 165.995 52.1895 166.142C52.1765 166.247 52.2109 166.351 52.2449 166.45L52.4277 166.984C52.5511 167.344 52.6822 167.718 52.9396 167.986C53.1971 168.254 53.6201 168.383 53.9236 168.177C54.4479 167.82 54.1748 166.944 53.7811 166.431C53.4495 165.999 52.9212 165.577 52.4467 165.813ZM53.1084 167.184C52.9171 167.004 52.8435 166.695 52.9314 166.44C53.4543 166.596 53.767 167.292 53.5533 167.824L53.0919 167.204L53.1084 167.184ZM70.5867 156.985C70.629 156.889 70.6812 156.795 70.7607 156.728C71.0165 156.513 71.4059 156.671 71.671 156.874C72.0126 157.136 72.3143 157.481 72.4191 157.901C72.524 158.322 72.387 158.822 72.0202 159.046C71.3827 159.435 70.5464 158.746 70.4439 158C70.3968 157.657 70.4469 157.301 70.5867 156.985ZM71.6513 158.532C71.8992 158.431 71.9347 158.021 71.7078 157.878L71.7127 157.879L71.1389 157.317C70.9203 157.765 71.18 158.381 71.6513 158.532ZM91.493 153.794C91.6219 153.925 91.7856 154.02 91.9618 154.066C92.6854 154.254 93.4393 153.39 93.1713 152.679C92.9034 151.968 91.7761 151.841 91.3626 152.475C91.1027 152.874 91.1603 153.456 91.493 153.794ZM92.0786 152.705C92.3161 152.661 92.5666 152.872 92.5691 153.119C92.5717 153.365 92.3255 153.581 92.0871 153.542C91.8318 153.315 91.7943 152.876 92.0071 152.607L92.0786 152.705ZM45.975 151.487C45.4415 151.209 45.2054 150.488 45.1014 149.823C45.0087 149.23 45.7379 148.843 46.2045 149.112C46.6711 149.382 46.8964 149.992 47.0848 150.554C47.2962 151.184 46.5085 151.765 45.975 151.487ZM45.8587 149.673C45.6512 149.734 45.6008 150.121 45.7839 150.249L45.7837 150.243C45.7999 150.574 46.1049 150.845 46.386 150.777C46.3738 150.341 46.1716 149.918 45.8587 149.673ZM68.612 152.065C69.1505 152.063 69.519 151.342 69.3861 150.759C69.2531 150.175 68.7697 149.765 68.262 149.564C67.8984 149.421 67.491 149.774 67.4085 150.195C67.3261 150.616 67.488 151.052 67.7087 151.406C67.9229 151.749 68.2377 152.067 68.612 152.065ZM68.0179 150.799L67.9573 150.343C68.4517 150.25 68.9465 150.823 68.8445 151.372C68.7426 151.452 68.6104 151.481 68.4889 151.451C68.3923 151.199 68.2393 150.974 68.0477 150.802L68.0179 150.799ZM80.2068 148.518C79.6433 148.529 79.2512 148.047 79.1061 147.595C78.9943 147.247 78.9947 146.813 79.344 146.599C79.7337 146.36 80.3067 146.556 80.6328 146.853C80.9226 147.117 81.1152 147.476 81.056 147.83C80.9968 148.183 80.6375 148.51 80.2068 148.518ZM79.9722 147.101C79.7505 147.032 79.5327 147.323 79.7045 147.458L79.7197 147.434C79.8047 147.639 79.9711 147.821 80.187 147.943C80.4068 147.679 80.3023 147.269 79.9722 147.101ZM59.2997 162.715C59.2813 162.622 59.2662 162.523 59.3006 162.434C59.3535 162.299 59.5068 162.23 59.6511 162.209C60.2748 162.117 60.8169 162.654 61.1084 163.211C61.3661 163.703 61.4359 164.456 60.9264 164.68C60.4377 164.896 59.9366 164.393 59.7029 163.914C59.5175 163.534 59.3816 163.13 59.2997 162.715ZM60.4718 163.533C60.5662 163.37 60.4724 163.13 60.2918 163.073L60.3107 163.088C60.1766 163.076 60.0793 163.249 60.1326 163.372C60.186 163.495 60.3385 163.552 60.4718 163.533ZM75.5875 139.771C75.8895 140.051 76.2252 140.31 76.6127 140.408C76.7334 140.438 76.8249 140.292 76.8689 140.167C77.1118 139.475 77.0747 138.593 76.5545 138.112C76.0343 137.631 75.016 137.931 74.9874 138.671C74.9703 139.112 75.2779 139.484 75.5875 139.771ZM75.715 138.533C76.1797 138.499 76.5067 139.125 76.3687 139.606C75.9548 139.478 75.6518 139.016 75.676 138.551L75.715 138.533ZM89.1754 143.185C89.1966 142.826 89.4444 142.461 89.7813 142.439C90.055 142.422 90.3004 142.628 90.4579 142.867C90.7037 143.241 90.7917 143.772 90.5522 144.15C90.3127 144.529 89.6931 144.592 89.4758 144.198C89.3046 143.888 89.1541 143.544 89.1754 143.185ZM90.1128 144.032L90.1541 143.548L90.1471 143.543C90.082 143.333 89.9467 143.15 89.7713 143.033C89.6019 143.387 89.7693 143.877 90.1128 144.032ZM99.9305 150.355C99.6971 150.743 99.8492 151.269 100.067 151.667C100.141 151.803 100.228 151.94 100.356 152.013C100.629 152.166 100.968 151.96 101.141 151.683C101.397 151.274 101.409 150.671 101.104 150.306C100.799 149.941 100.179 149.942 99.9305 150.355ZM100.777 150.965C100.778 151.106 100.623 151.217 100.505 151.16C100.388 151.103 100.358 150.903 100.454 150.808C100.552 150.734 100.712 150.837 100.7 150.968L100.777 150.965ZM97.5663 143.451C97.0703 143.472 96.6481 142.904 96.8076 142.432C96.846 142.318 96.9114 142.213 96.9968 142.129C97.3509 141.779 98.0426 141.915 98.2398 142.373C98.437 142.831 98.0622 143.431 97.5663 143.451ZM97.4513 142.414C97.2288 142.419 97.3751 142.834 97.5933 142.79L97.5906 142.799C97.6762 142.666 97.6017 142.46 97.4513 142.414Z" fill="#00160A"/>
<path fill-rule="evenodd" clip-rule="evenodd" d="M49.3564 141.573C46.6529 142.497 43.8387 143.489 41.862 145.564C39.3853 148.164 38.6729 152.077 39.1552 155.648C39.6376 159.218 41.1645 162.547 42.6728 165.814C44.3775 169.507 46.0822 173.199 47.787 176.892C53.4066 174.169 58.2401 170.059 63.6148 166.873C75.3417 159.923 89.3496 157.607 102.94 158.247C104.083 158.301 105.57 158.138 105.851 157.021C105.935 156.688 105.879 156.338 105.821 156C104.509 148.366 101.955 140.95 98.2922 134.138C97.7492 133.128 97.1736 132.12 96.3836 131.292C94.5592 129.38 91.7734 128.654 89.1435 128.77C86.5135 128.887 83.9792 129.746 81.4861 130.598C70.7762 134.256 60.0663 137.915 49.3564 141.573ZM98.2146 135.674C101.407 142.101 104.076 148.911 104.811 156.06C104.843 156.368 104.867 156.697 104.724 156.971C104.435 157.525 103.672 157.553 103.051 157.512C88.6762 156.565 73.8186 159.394 61.6227 167.118C57.4543 169.758 53.625 172.94 49.3018 175.314C49.1111 175.419 48.894 175.525 48.6854 175.464C48.4752 175.402 48.3484 175.193 48.2423 175C45.6155 170.224 43.2884 165.28 41.2796 160.209C40.5675 158.411 39.8889 156.569 39.7125 154.642C39.2684 149.789 42.4611 144.838 47.0423 143.274C58.7841 139.265 70.5258 135.257 82.2676 131.248C84.4139 130.515 86.589 129.777 88.8493 129.613C91.1096 129.449 93.5025 129.923 95.2455 131.382C96.5869 132.504 97.4342 134.102 98.2146 135.674Z" fill="#00160A"/>
<path fill-rule="evenodd" clip-rule="evenodd" d="M193.625 165.8C194.316 166.188 195.214 165.588 195.476 164.846C195.68 164.268 195.633 163.647 195.586 163.029C195.573 162.854 195.56 162.679 195.552 162.505C195.482 160.864 195.938 159.268 196.394 157.676C196.536 157.181 196.677 156.685 196.803 156.188C198.893 147.934 196.263 138.669 190.136 132.705C189.351 134.197 187.258 134.591 185.664 134.009C184.071 133.427 182.867 132.134 181.736 130.879C180.604 129.624 179.42 128.32 177.84 127.702C179.022 127.5 180.252 127.581 181.397 127.936C181.573 126.331 183.269 125.057 184.876 125.322C185.973 125.503 186.844 124.477 187.527 123.606C188.21 122.736 189.302 121.829 190.307 122.301C189.015 123.075 189.118 124.978 189.663 126.374C189.762 126.628 189.871 126.885 189.981 127.142C190.472 128.297 190.975 129.48 190.669 130.665C190.378 131.793 191.299 132.834 192.089 133.696C196.52 138.535 198.902 145.16 198.558 151.685C199.862 149.932 201.517 148.437 203.4 147.314C203.751 147.104 204.113 146.905 204.476 146.705C205.761 145.997 207.055 145.284 207.893 144.109C208.88 142.723 210.708 142.123 212.42 142.175C214.131 142.226 215.771 142.83 217.374 143.426C217.819 143.592 218.338 143.85 218.371 144.32C218.397 144.67 218.128 144.967 217.864 145.201C215.335 147.439 211.391 147.944 208.371 146.416C207.272 145.86 205.942 146.395 204.89 147.034C198.78 150.745 195.357 158.355 196.655 165.338C197.674 165.719 198.77 165.668 199.871 165.617C200.477 165.589 201.085 165.561 201.682 165.605C203.366 165.728 205.293 166.948 204.998 168.595C204.314 172.413 203.63 176.337 204.387 180.141C204.606 181.244 204.944 182.319 205.282 183.394C205.525 184.168 205.769 184.942 205.968 185.728C206.468 187.698 206.689 189.738 206.621 191.768C206.603 192.313 206.558 192.879 206.285 193.351C205.882 194.049 205.073 194.399 204.304 194.655C201.822 195.48 199.169 195.792 196.561 195.567C194.59 195.397 192.368 194.7 191.619 192.885C191.147 191.739 191.396 190.441 191.635 189.226C192.77 183.452 193.492 177.337 191.502 171.794C191.433 171.603 191.361 171.411 191.289 171.219C190.863 170.086 190.429 168.927 190.614 167.748C190.83 166.368 192.399 165.111 193.625 165.8ZM199.102 183.285L200.695 186.669C200.882 187.066 200.996 187.669 200.584 187.83C199.474 186.282 198.686 184.509 198.281 182.654C198.132 181.971 197.514 181.464 196.843 181.249C196.172 181.034 195.449 181.062 194.746 181.108C194.351 181.133 193.915 181.182 193.65 181.473C193.44 181.704 193.389 182.032 193.348 182.341L192.244 190.575C192.147 191.299 192.054 192.061 192.331 192.738C192.8 193.881 194.14 194.387 195.362 194.624C198.365 195.209 201.536 194.919 204.381 193.8C204.782 193.642 205.193 193.457 205.464 193.124C205.826 192.68 205.87 192.067 205.878 191.497C205.926 187.803 205.078 184.101 203.426 180.79L199.571 182.188C199.336 182.273 199.076 182.382 198.986 182.613C198.901 182.831 199.002 183.073 199.102 183.285ZM198.789 181.324C199.044 181.614 199.528 181.744 199.823 181.494C200.827 180.644 202.22 180.264 203.521 180.486C203.055 177.731 203.401 174.945 203.747 172.155C203.912 170.825 204.078 169.494 204.155 168.164C204.164 168.009 204.169 167.84 204.078 167.713C203.931 167.505 203.622 167.514 203.367 167.546L197.293 168.301C197.085 168.327 196.87 168.355 196.691 168.464C196.189 168.772 196.24 169.501 196.354 170.075L198.377 180.261C198.451 180.638 198.535 181.034 198.789 181.324ZM197.358 178.92C196.442 175.411 195.819 171.827 195.496 168.217C194.008 168.461 192.434 168.147 191.157 167.352C191.412 168.546 191.731 169.732 192.049 170.918C192.806 173.738 193.563 176.556 193.46 179.453L193.459 179.48C193.45 179.725 193.441 179.979 193.542 180.203C193.647 180.434 193.914 180.616 194.157 180.535C195.288 180.154 196.601 180.356 197.563 181.058C197.734 180.362 197.545 179.636 197.364 178.942L197.358 178.92ZM189.426 132.123C190.068 131.182 190.201 129.944 189.881 128.853C189.731 128.343 189.489 127.842 189.248 127.346C188.765 126.35 188.289 125.367 188.577 124.341C188.661 124.046 188.759 123.636 188.477 123.509C187.359 124.473 186.623 125.862 186.458 127.321C186.41 127.748 186.417 128.208 186.654 128.568C186.886 128.92 187.281 129.099 187.675 129.278C187.814 129.341 187.952 129.404 188.083 129.474C188.587 129.744 189.052 130.345 188.77 130.84C186.344 129.071 183.236 128.246 180.242 128.577C181.044 129.082 181.781 129.688 182.431 130.375C182.657 130.614 182.879 130.866 183.103 131.12C184.068 132.217 185.06 133.345 186.474 133.519C187.612 133.659 188.783 133.065 189.426 132.123ZM212.67 142.875C210.875 142.786 208.824 143.867 208.01 145.006L209.928 146.15C212.072 147.036 213.123 146.705 213.619 146.55C213.645 146.542 213.669 146.534 213.692 146.527C215.153 146.082 216.537 145.392 217.767 144.495C216.156 143.706 214.465 142.964 212.67 142.875ZM182.418 127.633C182.508 127.755 182.67 127.798 182.819 127.832L185.28 128.4C185.398 128.428 185.524 128.455 185.639 128.415C185.943 128.31 185.92 127.875 185.801 127.58C185.682 127.284 185.537 126.915 185.753 126.679C186.015 126.394 185.527 126.013 185.138 125.984C184.219 125.915 183.277 126.261 182.625 126.907C182.43 127.102 182.254 127.411 182.418 127.633ZM196.394 166.865C196.186 167.103 196.306 167.589 196.624 167.572C198.572 167.468 200.51 167.172 202.4 166.692C200.728 166.301 198.983 166.43 197.271 166.561C196.954 166.586 196.602 166.626 196.394 166.865ZM192.017 166.655C191.931 166.849 192.05 167.106 192.256 167.167C193.269 167.469 194.319 167.65 195.375 167.705C195.646 167.528 195.567 167.077 195.307 166.884C195.048 166.69 194.698 166.679 194.373 166.676L192.017 166.655ZM187.012 185.437C172.292 185.547 156.808 185.858 144.085 193.365C142.864 194.085 142.848 196.003 143.701 197.145C144.553 198.288 145.957 198.835 147.298 199.287C151.528 200.713 155.885 201.749 160.299 202.378C164.473 202.973 168.688 203.203 172.899 203.393C197.466 204.501 222.396 204.227 246.198 197.957C246.295 197.085 245.519 196.391 244.808 195.89C233.958 188.251 220.396 186.019 207.341 183.985C221.01 184.419 234.559 188.318 246.415 195.229C247.947 196.122 249.677 197.596 249.199 199.321C248.805 200.74 247.155 201.301 245.738 201.631C221.669 207.225 196.748 209.035 172.139 206.974C169.038 206.714 165.941 206.393 162.848 206.042C154.889 205.14 146.528 203.863 140.238 198.838C139.7 198.408 139.159 197.921 138.937 197.263C138.347 195.513 140.235 193.994 141.871 193.176C155.754 186.238 171.651 183.513 187.012 185.437ZM140.302 195.17C139.516 196.166 139.514 197.9 140.619 198.512C144.223 200.508 147.882 202.498 151.854 203.554C153.956 204.114 156.117 204.403 158.273 204.679C162.46 205.215 166.654 205.706 170.857 206.085C196.326 208.38 222.156 206.506 247.043 200.557C248.204 200.28 248.705 198.718 248.221 197.612C247.842 196.744 247.05 196.15 246.169 195.786C246.78 196.298 246.944 197.479 246.428 198.203C245.743 199.164 244.485 199.461 243.336 199.685C229.738 202.332 215.976 204.312 202.133 204.628C197.695 204.729 193.256 204.658 188.818 204.588C175.728 204.381 162.505 204.158 149.796 200.972C147.226 200.328 144.532 199.467 142.818 197.422C142.492 197.032 142.201 196.587 142.127 196.082C141.971 195.017 142.793 194.088 143.552 193.335C142.355 193.73 141.088 194.173 140.302 195.17ZM245.432 195.539C245.72 195.523 245.968 195.619 246.169 195.786C245.928 195.687 245.68 195.605 245.432 195.539ZM244.635 195.121C244.835 195.167 245.071 194.928 244.948 194.763L244.846 194.87C244.755 194.625 244.402 194.532 244.205 194.702C244.309 194.88 244.435 195.076 244.635 195.121ZM161.317 286.945C160.251 290.317 157.64 293.481 154.176 293.922C152.924 294.081 151.982 292.241 152.832 291.294C153.682 290.347 155.577 291.125 155.538 292.405C157.715 291.539 159.24 289.45 160.01 287.211C160.78 284.971 160.9 282.563 161.013 280.194L161.471 270.576C161.625 267.347 161.911 263.799 164.162 261.51C164.651 261.013 165.215 260.598 165.778 260.183C166.499 259.652 167.219 259.123 167.777 258.424C169.083 256.787 169.273 254.534 169.339 252.429C169.7 240.845 167.93 229.197 164.148 218.261C163.9 217.545 163.643 216.83 163.387 216.115L163.387 216.115L163.386 216.115L163.386 216.114L163.386 216.114C162.35 213.229 161.312 210.339 160.849 207.312C161.432 207.162 161.838 207.877 162.022 208.457L165.752 220.172C166.725 223.228 167.7 226.288 168.424 229.415C170.126 236.763 170.422 244.36 170.711 251.902C170.781 253.724 170.831 255.64 170.007 257.26C169.411 258.432 168.431 259.308 167.446 260.189L167.446 260.189C166.732 260.828 166.015 261.47 165.44 262.228C164.17 263.902 163.67 266.037 163.307 268.117C162.827 270.86 162.526 273.634 162.406 276.417C162.377 277.093 162.358 277.772 162.339 278.451L162.339 278.452C162.259 281.329 162.179 284.218 161.317 286.945ZM154.711 292.021C154.606 291.617 153.993 291.472 153.732 291.796L153.662 291.737C153.404 292.064 153.579 292.639 153.978 292.748C154.377 292.857 154.817 292.426 154.711 292.021ZM234.571 296.842C234.741 295.755 233.478 295.044 232.418 294.829L232.289 294.803C231.255 294.596 230.053 294.355 229.671 293.373C228.131 289.423 228.05 285.06 227.969 280.723C227.873 275.581 227.778 270.476 225.253 266.142C224.042 264.063 222.341 262.321 220.515 260.778C220.375 260.66 220.234 260.542 220.092 260.423C218.611 259.185 217.062 257.89 216.542 256.036C216.251 255.002 216.321 253.902 216.394 252.829L217.804 232.062C217.984 229.411 218.164 226.757 218.521 224.125C219.253 218.731 220.724 213.468 222.421 208.305C221.084 209.072 220.481 210.679 220.036 212.174C217.473 220.801 216.875 229.886 216.294 238.879L215.383 252.964C215.216 255.54 215.357 258.708 217.609 259.893C221.185 261.775 224.028 265.054 225.42 268.899C226.755 272.587 226.756 276.574 226.757 280.534C226.758 281.431 226.758 282.326 226.774 283.216C226.859 288.036 227.583 293.216 230.83 296.724C231.366 297.302 232.005 297.845 232.776 297.966C233.547 298.087 234.448 297.626 234.571 296.842ZM233.86 296.814C233.897 297.043 233.669 297.245 233.441 297.262C233.214 297.278 232.999 297.164 232.803 297.045C232.177 296.664 231.599 296.201 231.089 295.671C231.486 295.367 232.052 295.377 232.508 295.576C232.965 295.776 233.333 296.137 233.673 296.506C233.755 296.595 233.84 296.693 233.86 296.814ZM188.981 263.025C189.064 269.717 188.196 276.38 187.331 283.015C187.09 284.862 186.84 286.741 186.083 288.439C185.741 289.207 185.069 290.038 184.259 289.852C184.006 289.794 183.783 289.638 183.595 289.457C182.858 288.748 182.63 287.439 183.322 286.685C184.014 285.931 185.576 286.326 185.622 287.356C186.977 280.072 187.843 272.694 188.213 265.29C188.254 264.466 188.341 263.534 188.981 263.025ZM183.861 287.199C183.826 287.34 183.902 287.483 183.976 287.608L184.574 288.625L184.97 288.548C185.015 288.141 184.926 287.72 184.723 287.365C184.533 287.036 183.954 286.83 183.861 287.199ZM188.86 250.943C189.065 248.716 188.982 246.473 188.881 244.239C188.362 232.65 187.408 221.082 186.024 209.567C185.991 209.291 185.926 208.969 185.678 208.853C185.163 208.613 184.878 209.476 184.942 210.05C186.484 223.84 187.499 237.695 187.868 251.57C187.876 251.875 188.329 251.973 188.556 251.776C188.784 251.579 188.832 251.246 188.86 250.943Z" fill="#00160A"/>
<path d="M182.82 262.817C185.9 262.608 188.979 262.399 192.059 262.191C196.305 261.903 200.565 261.614 204.742 260.801C207.658 260.234 210.524 259.413 213.295 258.351C213.596 258.235 213.91 258.107 214.112 257.857C214.499 257.381 214.306 256.63 213.858 256.209C213.41 255.789 212.785 255.618 212.185 255.474C199.492 252.414 186.166 254.384 173.311 256.685C172.338 256.859 171.336 257.047 170.508 257.582C169.681 258.118 169.065 259.097 169.264 260.054C169.499 261.179 170.693 261.82 171.797 262.174C175.32 263.305 179.124 263.067 182.82 262.817" fill="white"/>
<path fill-rule="evenodd" clip-rule="evenodd" d="M182.82 262.817C185.9 262.608 188.979 262.399 192.059 262.191C196.305 261.903 200.565 261.614 204.742 260.801C207.658 260.234 210.524 259.413 213.295 258.351C213.596 258.235 213.91 258.107 214.112 257.857C214.499 257.381 214.306 256.63 213.858 256.209C213.41 255.789 212.785 255.618 212.185 255.474C199.492 252.414 186.166 254.384 173.311 256.685C172.338 256.859 171.336 257.047 170.508 257.582C169.681 258.118 169.065 259.097 169.264 260.054C169.499 261.179 170.693 261.82 171.797 262.174C175.32 263.305 179.124 263.067 182.82 262.817M213.581 257.48C203.593 260.894 192.853 261.327 182.292 261.728C179.7 261.826 177.106 261.924 174.513 261.859C173.489 261.834 172.376 261.748 171.615 261.071C170.854 260.393 170.809 258.912 171.758 258.531C177.272 256.316 183.331 255.907 189.271 255.534C196.34 255.091 203.489 254.667 210.467 255.875C211.661 256.082 212.989 256.435 213.581 257.48Z" fill="#00160A"/>
<path fill-rule="evenodd" clip-rule="evenodd" d="M61.4857 215.403C60.8768 212.038 60.5525 208.621 60.5174 205.201C60.4635 199.95 61.0895 194.698 60.7934 189.455C60.4972 184.213 59.1634 178.81 55.7335 174.857C56.0479 177.033 56.7255 179.155 57.7294 181.107C59.7046 184.947 59.772 189.46 59.7958 193.786C59.8325 200.443 59.8691 207.099 59.9057 213.755C59.9169 215.785 61.3073 217.642 63.0977 218.572C64.8882 219.502 67.0071 219.61 68.9952 219.286C70.5749 219.028 72.1005 218.514 73.618 218.001C82.611 214.965 91.6039 211.929 100.597 208.893C101.32 208.649 102.173 208.245 102.225 207.478C103.016 195.853 103.061 184.177 102.358 172.546C102.055 167.541 101.385 162.05 97.7283 158.652C98.8379 161.008 99.9532 163.38 100.635 165.896C101.532 169.205 101.656 172.669 101.774 176.097C102.131 186.471 102.487 196.894 101.272 207.201C101.214 207.69 101.042 208.298 100.558 208.362C96.5536 208.893 92.7174 210.282 88.9172 211.661C83.6504 213.573 78.3836 215.484 73.1168 217.396C71.8359 217.861 70.537 218.33 69.1805 218.446C67.239 218.613 65.3171 218.048 63.4491 217.489C62.8936 217.323 62.3021 217.133 61.9423 216.676C61.6615 216.318 61.5668 215.851 61.4857 215.403Z" fill="#00160A"/>
<path fill-rule="evenodd" clip-rule="evenodd" d="M69.9199 220.972C77.9011 220.459 85.2921 216.911 92.9313 214.596C95.6175 213.782 98.3485 213.117 101.078 212.454C102.852 212.022 104.626 211.591 106.4 211.159C102.931 210.271 99.2914 211.392 95.8898 212.501C87.2332 215.325 78.5765 218.148 69.9199 220.972Z" fill="#00160A"/>
<path fill-rule="evenodd" clip-rule="evenodd" d="M210.857 144.203C210.595 144.211 210.359 144.248 209.984 144.338L207.811 144.907C207.694 144.937 207.586 144.964 207.491 144.988C207.356 145.022 207.273 145.16 207.307 145.296C207.341 145.431 207.479 145.514 207.615 145.48L208.397 145.278L209.874 144.888L209.985 144.86C210.401 144.755 210.626 144.717 210.873 144.71L210.936 144.71C211.397 144.727 213.564 144.941 214.962 145.032C215.101 145.041 215.222 144.935 215.231 144.796C215.24 144.656 215.134 144.535 214.995 144.526L214.466 144.489C213.074 144.384 211.249 144.206 210.888 144.203L210.857 144.203Z" fill="#00160A"/>
<path fill-rule="evenodd" clip-rule="evenodd" d="M211.153 143.303C211.049 143.21 210.889 143.218 210.795 143.322L209.977 144.235C209.883 144.339 209.892 144.499 209.996 144.593C210.1 144.686 210.26 144.677 210.354 144.573L211.173 143.661C211.266 143.557 211.257 143.396 211.153 143.303Z" fill="#00160A"/>
<path fill-rule="evenodd" clip-rule="evenodd" d="M210.04 144.228C209.926 144.31 209.901 144.468 209.983 144.582L210.745 145.633C210.827 145.746 210.986 145.772 211.099 145.69C211.212 145.607 211.237 145.449 211.155 145.336L210.393 144.284C210.311 144.171 210.153 144.146 210.04 144.228Z" fill="#00160A"/>
<path fill-rule="evenodd" clip-rule="evenodd" d="M214.05 143.661C213.985 143.538 213.832 143.49 213.708 143.556L212.401 144.246C212.277 144.312 212.23 144.465 212.295 144.589C212.361 144.712 212.514 144.76 212.638 144.694L213.945 144.004C214.068 143.938 214.116 143.785 214.05 143.661Z" fill="#00160A"/>
<path fill-rule="evenodd" clip-rule="evenodd" d="M212.407 144.338C212.317 144.445 212.331 144.605 212.438 144.695L213.785 145.824C213.892 145.914 214.052 145.9 214.142 145.793C214.232 145.686 214.218 145.526 214.111 145.436L212.764 144.306C212.656 144.216 212.497 144.23 212.407 144.338Z" fill="#00160A"/>
<path fill-rule="evenodd" clip-rule="evenodd" d="M200.584 187.83C200.996 187.669 200.882 187.066 200.695 186.669C200.164 185.541 199.633 184.413 199.102 183.285C199.002 183.073 198.901 182.831 198.986 182.613C199.076 182.382 199.336 182.273 199.571 182.188C200.856 181.722 202.141 181.256 203.426 180.79C205.078 184.101 205.926 187.803 205.878 191.497C205.871 192.067 205.826 192.68 205.465 193.124C205.193 193.457 204.782 193.643 204.381 193.8C201.536 194.919 198.365 195.209 195.362 194.625C194.14 194.387 192.8 193.881 192.331 192.738C192.054 192.062 192.147 191.299 192.244 190.576C192.612 187.831 192.98 185.086 193.348 182.341C193.389 182.032 193.44 181.704 193.65 181.473C193.915 181.182 194.351 181.133 194.746 181.108C195.449 181.062 196.172 181.035 196.843 181.249C197.514 181.464 198.132 181.972 198.281 182.654C198.686 184.51 199.475 186.282 200.584 187.83Z" fill="#E7EAEE"/>
<path fill-rule="evenodd" clip-rule="evenodd" d="M203.521 180.486C202.22 180.264 200.827 180.644 199.823 181.494C199.529 181.744 199.044 181.614 198.79 181.324C198.536 181.034 198.452 180.638 198.377 180.261C197.703 176.866 197.029 173.471 196.355 170.075C196.241 169.501 196.189 168.772 196.692 168.464C196.87 168.355 197.085 168.327 197.293 168.301C199.318 168.049 201.342 167.797 203.367 167.546C203.622 167.514 203.931 167.505 204.079 167.713C204.169 167.84 204.165 168.009 204.156 168.164C203.915 172.283 202.833 176.417 203.521 180.486Z" fill="white"/>
<path fill-rule="evenodd" clip-rule="evenodd" d="M191.157 167.353C192.434 168.148 194.008 168.461 195.496 168.217C195.819 171.827 196.442 175.411 197.358 178.921C197.541 179.621 197.736 180.355 197.563 181.058C196.602 180.356 195.288 180.154 194.157 180.535C193.914 180.616 193.647 180.434 193.542 180.203C193.437 179.972 193.451 179.707 193.46 179.453C193.607 175.337 192.018 171.382 191.157 167.353Z" fill="white"/>
<path fill-rule="evenodd" clip-rule="evenodd" d="M202.4 166.692C200.511 167.172 198.573 167.468 196.624 167.572C196.307 167.589 196.186 167.103 196.394 166.865C196.602 166.626 196.954 166.586 197.271 166.561C198.984 166.43 200.729 166.301 202.4 166.692Z" fill="white"/>
<path fill-rule="evenodd" clip-rule="evenodd" d="M195.375 167.705C194.319 167.65 193.269 167.469 192.256 167.167C192.051 167.106 191.931 166.849 192.017 166.655C192.803 166.662 193.588 166.669 194.373 166.676C194.698 166.679 195.048 166.69 195.308 166.884C195.567 167.077 195.647 167.528 195.375 167.705" fill="white"/>
<path fill-rule="evenodd" clip-rule="evenodd" d="M189.881 128.853C190.201 129.944 190.068 131.182 189.426 132.123C188.783 133.065 187.613 133.659 186.474 133.519C184.733 133.304 183.631 131.644 182.432 130.375C181.782 129.688 181.044 129.082 180.242 128.577C183.236 128.246 186.344 129.071 188.77 130.84C189.052 130.345 188.587 129.745 188.083 129.474C187.579 129.204 186.968 129.043 186.654 128.568C186.417 128.209 186.411 127.748 186.459 127.321C186.624 125.862 187.359 124.473 188.477 123.509C188.759 123.636 188.661 124.046 188.578 124.341C188.145 125.879 189.431 127.32 189.881 128.853Z" fill="#FFE700"/>
<path fill-rule="evenodd" clip-rule="evenodd" d="M182.819 127.832C182.67 127.798 182.508 127.755 182.418 127.633C182.254 127.411 182.43 127.102 182.626 126.907C183.277 126.261 184.219 125.915 185.138 125.984C185.527 126.013 186.016 126.394 185.753 126.679C185.537 126.915 185.682 127.284 185.801 127.58C185.92 127.875 185.943 128.31 185.639 128.415C185.525 128.455 185.398 128.428 185.28 128.4C184.46 128.211 183.64 128.022 182.819 127.832Z" fill="#FFE700"/>
</svg>
