<svg width="445" height="439" viewBox="0 0 445 439" fill="none" xmlns="http://www.w3.org/2000/svg">
<path fill-rule="evenodd" clip-rule="evenodd" d="M378.407 334.099C446.55 273.299 358.572 238.606 374.786 187.226C391.001 135.845 432.042 58.5756 278.908 72.189C125.774 85.8025 -1.35954 240.468 53.2335 313.259C107.826 386.05 310.263 394.9 378.407 334.099Z" fill="#C986FF"/>
<path fill-rule="evenodd" clip-rule="evenodd" d="M251.988 209.452C256.412 211.6 260.835 213.748 265.259 215.896C272.228 219.28 279.317 222.746 284.936 228.067C290.555 233.389 294.574 240.958 293.732 248.637C292.742 257.663 285.584 264.616 278.862 270.747C270.1 278.739 261.338 286.73 252.576 294.722C248.736 298.224 244.531 303.212 246.599 307.971C251.97 320.333 256.835 334.394 251.951 346.955C250.572 350.501 247.718 354.163 243.905 353.988C241.068 353.858 238.818 351.636 236.993 349.467C229.739 340.848 224.357 330.673 221.32 319.839C217.431 305.967 217.906 289.709 227.369 278.821C234.723 270.36 247.394 264.67 248.177 253.505C233.85 241.384 213.125 237.253 195.221 242.95C177.317 248.648 162.831 263.983 158.209 282.135C155.691 292.021 161.326 302.197 168.258 309.701C175.19 317.205 183.693 323.427 189.026 332.131C199.753 349.638 195.07 372.055 190.051 391.947C188.309 398.85 177.799 400.002 172.567 395.156C167.334 390.31 166.433 382.394 166.988 375.298C167.542 368.202 169.205 361.029 167.81 354.048C164.211 336.032 143.045 327.807 132.673 312.62C124.812 301.11 123.73 286.051 126.64 272.434C129.55 258.817 136.059 246.272 142.498 233.917C130.515 215.638 125.485 192.951 128.624 171.344C130.208 160.442 115.806 152.053 117.305 141.139C118.502 132.428 128.759 128.495 137.428 126.856C153.928 123.737 170.802 122.584 187.575 123.43C191.325 123.619 192.975 118.19 191.097 114.95C189.219 111.71 185.551 110.043 182.514 107.842C176.395 103.41 172.55 96.4223 170.43 89.1866C167.71 79.9009 167.705 69.3574 172.757 61.0974C174.02 59.0331 176.191 55.9736 179.494 58.9385C180.485 53.7634 191.007 48.7894 197.734 51.5677C201.766 53.2328 206.062 49.818 208.625 46.2974C211.187 42.7768 213.666 38.5257 217.924 37.5704C225.548 35.8598 230.431 46.0257 229.553 53.7634C228.675 61.5011 225.259 69.6756 228.612 76.7095C229.887 79.3838 232.096 81.6995 232.519 84.63C232.886 87.1722 232.228 86.1809 230.797 92.034C229.365 97.8871 225.917 99.7669 224.495 103.005C222.307 107.989 222.636 112.367 218.063 116.778C217.294 117.52 218.861 119.221 218.308 120.481C229.568 120.642 238.123 129.999 246.839 137.105C257.678 145.943 270.938 152.126 284.892 153.325C298.846 154.524 313.448 150.445 323.866 141.118C327.945 137.467 337.674 142.237 338.384 136.82C338.52 135.417 338.147 134.813 336.813 134.467C336.123 134.289 334.491 134.66 333.984 134.01C332.498 132.106 341.15 128.823 340.784 131.438C340.691 132.108 340.297 132.603 340.347 133.037C340.492 134.298 341.213 134.687 342.325 134.91C344.67 135.055 348.029 133.454 349.43 131.438C350.37 130.088 350.004 129.73 349.267 129.67C348.062 129.573 345.867 130.273 346.767 128.741C347.872 126.856 350.722 125.069 353.433 126.71C354.019 127.064 353.813 127.752 353.513 128.427C352.962 129.666 352.093 130.864 355.206 129.89C360.016 128.385 360.292 128.667 361.534 129.035C362.777 129.403 364.602 131.587 365.77 133.627C368.173 137.825 370.639 142.228 370.864 147.056C371.088 151.884 368.293 157.223 363.54 158.188C363.498 159.593 364.187 160.917 365.233 161.848C366.373 162.862 369.303 162.244 368.811 163.151C367.211 166.096 363.316 166.851 360.25 165.821C359.408 165.538 361.35 164.088 361.534 163.083C361.829 161.475 361.494 159.743 360.51 158.429C357.737 159.598 354.963 160.768 352.19 161.938C352.995 162.963 352.628 164.18 353.433 165.206C354.193 166.174 356.144 165.929 356.471 167.303C356.827 168.798 353.946 169.425 352.458 169.565C350.827 169.718 348.289 169.885 347.53 168.798C346.666 167.562 349.372 167.166 349.497 165.873C349.633 164.462 349.116 162.953 347.872 162.271C345.49 160.962 342.072 163.371 342.517 166.045C343.637 172.781 340.836 180.024 335.469 184.269C330.102 188.514 322.387 189.59 316.057 186.976C310.334 184.612 303.994 187.653 298.071 189.465C284.644 193.574 269.322 190.953 258.039 182.618C257.388 191.936 255.597 202.029 249.619 208.9C250.588 209.452 250.09 209.452 251.988 209.452Z" fill="white"/>
<ellipse cx="192.263" cy="105.317" rx="3.26333" ry="3.2526" fill="#C986FF"/>
<ellipse cx="215.676" cy="98.7899" rx="3.26334" ry="3.26333" fill="#C986FF"/>
<path fill-rule="evenodd" clip-rule="evenodd" d="M234.735 244.149C233.266 243.49 231.795 242.831 230.314 242.189C219.477 237.487 206.477 234.106 196.252 240.014C194.69 230.074 205.385 222.482 215.228 220.233C217.927 219.616 220.713 219.179 223.498 218.741C230.869 217.584 238.242 216.426 244.028 211.945C252.619 205.292 254.91 193.433 255.666 182.618C266.949 190.953 282.271 193.574 295.698 189.465C296.723 189.151 297.76 188.801 298.805 188.448C303.796 186.762 308.951 185.021 313.684 186.976C320.014 189.59 327.729 188.514 333.096 184.269C338.463 180.024 341.264 172.781 340.144 166.045C339.699 163.371 343.117 160.962 345.499 162.271C346.743 162.953 347.26 164.462 347.124 165.873C347.068 166.452 346.495 166.851 345.956 167.226C345.292 167.689 344.68 168.115 345.157 168.798C345.916 169.885 348.454 169.718 350.085 169.565C351.573 169.425 354.454 168.798 354.098 167.303C353.911 166.516 353.19 166.26 352.466 166.003C351.926 165.812 351.385 165.619 351.06 165.206C350.658 164.693 350.548 164.133 350.439 163.572C350.329 163.011 350.219 162.45 349.817 161.938L358.137 158.429C359.121 159.743 359.456 161.475 359.161 163.083C359.082 163.515 358.678 164.03 358.31 164.498C357.822 165.119 357.397 165.659 357.877 165.821C360.943 166.851 364.838 166.096 366.438 163.151C366.688 162.69 366.053 162.623 365.219 162.535C364.413 162.451 363.421 162.346 362.86 161.848C361.814 160.917 361.125 159.593 361.167 158.188C365.92 157.223 368.715 151.884 368.491 147.056C368.266 142.228 365.8 137.825 363.397 133.627C362.229 131.587 360.404 129.403 359.161 129.035C359.084 129.012 359.01 128.989 358.939 128.967C357.867 128.639 357.344 128.478 352.833 129.89C350.039 130.765 350.453 129.889 350.965 128.804C351.023 128.68 351.083 128.554 351.139 128.427C351.44 127.752 351.646 127.064 351.06 126.71C348.349 125.069 345.499 126.856 344.394 128.741C343.733 129.866 344.741 129.787 345.801 129.705C346.184 129.675 346.574 129.644 346.894 129.67C347.631 129.73 347.997 130.088 347.057 131.438C345.656 133.454 342.297 135.055 339.952 134.91C338.84 134.687 338.119 134.298 337.974 133.037C337.948 132.806 338.046 132.558 338.159 132.276C338.258 132.027 338.367 131.752 338.411 131.438C338.777 128.823 330.125 132.106 331.611 134.01C331.941 134.434 332.749 134.423 333.463 134.414C333.845 134.41 334.2 134.405 334.44 134.467C335.774 134.813 336.147 135.417 336.011 136.82C335.623 139.778 332.546 139.699 329.168 139.611C326.36 139.539 323.344 139.461 321.493 141.118C311.074 150.445 296.473 154.524 282.519 153.325C268.565 152.126 255.305 145.943 244.466 137.105C242.97 135.886 241.478 134.6 239.977 133.305C232.734 127.058 225.262 120.615 215.935 120.481C216.208 119.858 215.963 119.127 215.739 118.457C215.509 117.773 215.302 117.153 215.69 116.778C218.099 114.455 219.329 109.929 220.394 106.009C221.352 102.487 222.176 99.4546 223.602 98.9507C226.457 97.9423 227.295 95.4259 228.261 92.5229C228.314 92.3611 228.369 92.198 228.424 92.034C228.753 91.0515 229.047 90.258 229.298 89.582C230.064 87.5144 230.423 86.5458 230.146 84.63C229.87 82.7192 228.835 81.0698 227.795 79.412C227.24 78.5272 226.683 77.6401 226.239 76.7095C223.8 71.5923 224.943 65.8715 226.085 60.1543C226.513 58.0129 226.94 55.8719 227.18 53.7634C228.058 46.0257 223.175 35.8598 215.551 37.5704C211.835 38.404 209.475 41.747 207.231 44.9244C206.903 45.3884 206.578 45.8488 206.252 46.2974C203.689 49.818 199.393 53.2328 195.361 51.5677C188.634 48.7894 178.112 53.7634 177.121 58.9385C173.818 55.9736 171.647 59.0331 170.384 61.0974C165.332 69.3574 165.337 79.9009 168.057 89.1866C170.177 96.4223 174.022 103.41 180.141 107.842C180.919 108.406 181.738 108.934 182.558 109.463C184.939 111 187.327 112.54 188.724 114.95C190.602 118.19 188.952 123.619 185.202 123.43C168.429 122.584 151.555 123.737 135.055 126.856C126.386 128.495 116.129 132.428 114.932 141.139C114.184 146.584 117.394 151.401 120.602 156.215C123.824 161.049 127.044 165.881 126.251 171.344C123.112 192.951 128.142 215.638 140.125 233.917C133.686 246.272 127.177 258.817 124.267 272.434C121.357 286.051 122.439 301.11 130.3 312.62C134.396 318.618 140.176 323.53 145.893 328.388C154.651 335.831 163.26 343.147 165.437 354.048C166.461 359.173 165.837 364.401 165.214 369.626C164.988 371.519 164.762 373.411 164.615 375.298C164.06 382.394 164.961 390.31 170.194 395.156C173.181 397.923 177.889 398.734 181.704 397.636C181.671 398.22 181.637 398.763 181.605 399.274C181.432 402.057 181.318 403.883 181.808 406.046C181.935 406.61 182.143 407.252 182.684 407.457C183.763 407.866 184.483 406.219 184.41 405.101C184.134 400.869 183.604 398.48 183.095 397.131C185.315 396.144 187.056 394.412 187.678 391.947C192.697 372.055 197.38 349.638 186.653 332.131C183.11 326.348 178.167 321.661 173.216 316.965C170.715 314.594 168.212 312.22 165.885 309.701C158.953 302.197 153.318 292.021 155.836 282.135C160.458 263.983 174.944 248.648 192.848 242.95C210.752 237.253 231.477 241.384 245.804 253.505C245.271 261.11 239.222 266.175 233.095 271.305C230.227 273.707 227.341 276.123 224.996 278.821C215.533 289.709 215.058 305.967 218.947 319.839C221.984 330.673 227.366 340.848 234.62 349.467C236.445 351.636 238.695 353.858 241.532 353.988C245.345 354.163 248.199 350.501 249.578 346.955C254.462 334.394 249.597 320.333 244.226 307.971C242.158 303.212 246.363 298.224 250.203 294.722L276.489 270.747C283.211 264.616 290.369 257.663 291.359 248.637C292.201 240.958 288.182 233.389 282.563 228.067C276.944 222.746 269.855 219.28 262.886 215.896L249.615 209.452C253.989 215.054 260.592 218.199 267.093 221.296C268.349 221.894 269.602 222.49 270.833 223.102C278.44 226.882 286.248 232.398 287.99 240.688C290.13 250.872 282.356 260.219 275.148 267.747C266.021 277.281 256.815 286.882 245.972 294.424C242.283 296.989 238.192 299.377 233.696 299.538C229.2 299.698 224.308 296.89 223.602 292.463C222.965 288.466 225.729 284.803 228.327 281.692L247.545 258.691C250.465 255.195 254.313 254.285 258.89 253.202C260.5 252.822 262.2 252.42 263.983 251.876C253.199 252.424 244.018 248.309 234.735 244.149ZM156.959 182.328C157.735 189.29 159.888 196.262 164.253 201.753C168.618 207.244 175.419 211.066 182.443 210.763C184.795 210.661 185.548 207.175 184.152 205.286C182.941 203.648 180.938 202.903 178.996 202.18C178.699 202.069 178.403 201.959 178.112 201.847C175.917 200.998 173.577 199.578 173.181 197.265C179.374 202.066 188.619 202.512 195.248 198.329C197.555 204.927 205.208 208.888 212.135 207.799C219.062 206.709 224.851 201.193 227.149 194.592C227.193 194.465 227.236 194.338 227.28 194.21C227.629 193.183 227.987 192.127 228.78 191.399C229.519 190.721 230.527 190.433 231.495 190.166L250.434 184.948C250.904 184.818 251.437 184.696 251.855 184.948C252.299 185.217 252.422 185.796 252.487 186.31C253.797 196.663 247.965 207.537 238.598 212.204C233.576 214.706 227.837 215.524 222.147 216.335C214.723 217.393 207.383 218.439 201.829 223.199C198.806 225.789 196.709 229.192 194.608 232.602C193.604 234.231 192.599 235.861 191.492 237.405C184.703 246.874 172.236 253.286 161.163 249.586C154.807 247.463 149.867 242.437 145.806 237.123C133.583 221.124 127.131 200.841 127.874 180.748C128.009 177.102 128.385 173.411 129.708 170.009C138.099 179.726 147.802 188.317 158.473 195.478C158.1 193.55 156.759 191.967 155.424 190.522C151.605 186.386 147.39 182.514 143.179 178.645C133.388 169.649 123.621 160.676 118.918 148.476C117.884 145.795 117.12 142.867 117.757 140.065C119.201 133.71 126.697 131.065 133.106 129.775C148.5 126.677 164.211 125.142 179.916 125.203C180.75 134.896 188.844 143.564 198.524 144.841C208.203 146.117 218.404 139.662 221.122 130.318C221.202 130.041 221.278 129.76 221.354 129.479C221.692 128.223 222.033 126.954 222.84 125.949C223.828 124.719 225.839 124.114 226.992 125.192C235.544 133.185 244.517 140.87 254.743 146.587C264.968 152.304 276.587 155.991 288.301 155.474C268.291 162.748 247.839 168.811 227.093 173.619C225.507 173.987 223.542 174.228 222.522 172.962C218.909 168.477 213.016 165.918 207.259 166.333C201.502 166.747 196.041 170.125 193.112 175.081C192.052 176.875 189.407 176.65 187.394 176.089C183.208 174.921 178.9 173.126 176.426 169.565C176.009 168.963 175.647 168.316 175.286 167.671C174.579 166.407 173.875 165.147 172.759 164.245C171.182 162.968 169.115 162.657 167.069 162.348C166.5 162.263 165.933 162.177 165.378 162.071C159.061 160.866 153.466 156.39 150.921 150.504C156.876 146.53 164.918 148.416 171.494 151.258C172.529 151.706 173.567 152.176 174.609 152.648C180.184 155.172 185.871 157.748 191.885 157.198C196.997 156.73 201.46 154.079 205.941 151.417C209.903 149.063 213.88 146.7 218.334 145.829C229.761 143.596 240.978 152.075 246.329 162.381C246.369 162.46 246.41 162.539 246.452 162.619C247.327 164.311 248.273 166.141 250.028 166.851C248.238 156.82 240.676 148.021 231.003 144.714C221.331 141.408 209.941 143.728 202.346 150.551C197.634 154.785 190.474 155.084 184.324 153.528C180.86 152.652 177.559 151.279 174.255 149.906C171.693 148.841 169.13 147.775 166.489 146.94C160.441 145.028 153.456 144.462 148.073 147.809C146.457 144.26 144.295 140.96 141.686 138.057C144.272 152.844 157.807 165.001 172.835 166.036L164.496 169.193C162.547 169.931 160.528 170.714 159.098 172.225C156.649 174.813 156.565 178.794 156.959 182.328ZM152.845 285.756C152.035 289.825 151.59 294.235 153.417 297.963C154.402 299.973 155.974 301.623 157.52 303.247L157.626 303.358C166.926 313.125 175.662 323.426 183.776 334.192C180.173 337.64 176.163 340.665 171.854 343.184C170.654 343.885 169.357 344.567 167.966 344.542C165.893 344.505 164.208 342.943 162.749 341.474C152.561 331.217 142.635 320.701 132.986 309.939C129.918 306.518 126.798 302.935 125.404 298.562C123.631 293.003 124.886 286.989 126.151 281.295C129.64 265.592 133.311 249.461 142.409 236.176C147.519 245.32 156.985 251.92 167.358 253.573C160.165 263.025 155.162 274.121 152.845 285.756ZM217.66 110.69C216.138 113.861 213.571 116.661 210.242 117.823C205.803 119.371 200.921 117.822 196.576 116.031C194.318 115.1 192.036 114.067 190.287 112.367C188.803 110.923 187.786 109.078 186.844 107.237C183.911 101.503 181.486 95.5106 179.609 89.3526C178.057 84.2602 177.257 77.8164 181.389 74.4438C186.109 78.053 192.457 78.9585 198.366 78.2737C203.621 77.6649 208.654 75.9246 213.661 74.1936C214.286 73.9776 214.91 73.7618 215.534 73.5483C216.247 73.3045 217.091 73.0793 217.706 73.513C218.177 73.8448 218.343 74.4535 218.471 75.0138C220.372 83.3464 220.926 91.9825 220.105 100.488C219.767 103.987 219.182 107.519 217.66 110.69ZM236.623 348.734C228.162 337.495 222.494 324.185 220.263 310.314C219.305 304.358 218.995 298.116 220.987 292.42C222.889 299.88 231.899 304.644 239.166 302.032C241.063 305.925 242.787 309.902 244.332 313.946C248.392 324.572 251.156 336.664 246.66 347.114C245.579 349.626 243.444 352.3 240.73 351.899C238.971 351.639 237.689 350.151 236.623 348.734ZM180.29 58.5523C182.429 54.735 187.135 52.7957 191.508 53.1625C192.528 53.2482 193.544 53.3773 194.54 53.5038C197.696 53.9047 200.647 54.2797 202.876 53.1625C206.269 51.4617 207.687 49.0973 209.13 46.6907C210.093 45.0841 211.068 43.4587 212.649 41.9994C213.649 41.0762 214.764 40.1902 216.096 39.8984C218.819 39.3015 221.434 41.3678 222.985 43.6767C226.314 48.6319 226.753 55.3764 224.095 60.7187C221.168 66.6022 215.133 70.2838 209.095 72.9169C204.748 74.8126 200.148 76.3503 195.404 76.4481C190.66 76.5458 185.723 75.0487 182.452 71.6239C179.181 68.199 177.977 62.6803 180.29 58.5523ZM166.914 368.176C166.711 366.673 166.551 364.994 167.466 363.783C171.217 364.119 175.089 362.765 177.806 360.165C176.979 358.466 174.422 358.581 172.806 359.567C172.186 359.946 171.616 360.411 171.048 360.875C170.137 361.619 169.229 362.36 168.124 362.734C167.055 361.68 167.246 359.82 168.135 358.612C169.024 357.404 170.421 356.691 171.765 356.021L180.232 351.802C178.606 350.197 175.894 350.176 173.818 351.136C171.742 352.096 170.153 353.838 168.624 355.535C166.928 352.581 168.139 348.343 171.143 346.723L182.111 340.808C182.963 340.349 183.867 339.876 184.835 339.905C186.933 339.967 188.198 342.23 188.772 344.24C190.431 350.057 189.925 356.24 189.405 362.264C188.641 371.124 187.864 380.052 185.37 388.59C184.51 391.533 183.154 394.738 180.299 395.879C177.202 397.117 173.559 395.238 171.706 392.473C169.854 389.707 169.362 386.284 168.916 382.989L166.914 368.176ZM313.147 167.303C314.335 167.159 315.363 165.791 314.785 164.748L310.707 157.399C310.17 156.431 309.62 155.422 309.548 154.318C309.477 153.214 310.03 151.986 311.086 151.645C312.598 151.156 313.989 152.613 314.864 153.935C316.708 156.72 318.316 159.661 319.665 162.715C321.265 160.589 319.517 157.654 317.919 155.527C316.321 153.4 314.923 150.137 316.921 148.378C318.895 146.64 322.032 148.421 323.543 150.57C324.338 151.699 324.99 152.951 325.641 154.199C326.901 156.616 328.152 159.015 330.403 160.465C331.376 159.872 330.891 158.388 330.302 157.416L322.746 144.953C322.07 143.839 323.187 142.328 324.48 142.139C325.773 141.951 327.021 142.64 328.101 143.373C333.297 146.898 337.435 152.293 338.411 158.481C339.388 164.668 336.737 171.541 331.288 174.665C329.64 175.609 327.804 176.198 325.938 176.559C314.58 178.76 302.148 171.514 298.506 160.571C297.949 158.896 297.814 156.608 299.396 155.815C300.602 155.21 302.059 155.929 303.063 156.827C304.514 158.126 305.55 159.788 306.588 161.451C307.587 163.052 308.586 164.655 309.957 165.935C310.83 166.75 311.959 167.448 313.147 167.303ZM194.653 179.599C196.048 179.642 197.494 179.687 198.654 180.435C199.934 181.261 200.491 183.351 199.279 184.272C198.821 184.62 198.226 184.722 197.656 184.813C192.362 185.659 186.323 186.317 182.207 182.893C181.282 183.313 181.012 184.582 181.389 185.523C181.767 186.464 182.607 187.133 183.449 187.703C187.183 190.234 191.655 191.671 196.169 191.792C193.213 194.344 188.885 195.212 185.167 194C183.708 193.523 181.655 192.98 181.01 194.369C183.873 197.095 188.242 197.305 192.203 197.356C185.128 200.716 175.845 198.528 171.031 192.366C170.688 191.927 169.915 192.151 169.642 192.637C169.37 193.122 169.444 193.719 169.526 194.269C169.943 197.068 170.515 200.147 172.745 201.899C173.925 202.827 175.39 203.231 176.856 203.636C177.44 203.797 178.025 203.958 178.592 204.153C180.581 204.836 182.636 206.334 182.655 208.43C176.249 208.98 169.979 205.363 166.101 200.253C162.223 195.143 160.441 188.738 159.62 182.384C159.407 180.742 159.258 179.041 159.737 177.455C160.69 174.298 163.82 172.389 166.705 170.774C168.798 169.603 171.684 168.523 173.344 170.251C178.752 175.879 186.408 179.302 194.224 179.585C194.366 179.591 194.509 179.595 194.653 179.599ZM208.392 190.949L290.368 168.337C293.938 167.352 298.163 166.491 301.02 168.84C268.563 178.835 235.691 187.488 202.515 194.772C200.709 195.168 198.134 195.089 197.819 193.273C198.91 193.313 198.905 192.095 198.901 190.807C198.896 189.539 198.891 188.203 199.931 187.933L295.461 163.072C296.039 162.922 296.772 162.821 297.126 163.3C297.702 164.078 296.523 164.947 295.588 165.206L204.477 190.444C205.304 191.576 207.038 191.322 208.392 190.949ZM300.819 184.433C294.905 188.382 287.396 189.418 280.327 188.583C273.257 187.748 266.517 185.184 259.966 182.408L299.187 171.454C300.562 171.07 302.26 170.768 303.229 171.812C311.188 180.38 325.669 181.909 335.253 175.193C334.136 180.525 329.296 184.862 323.857 185.407C320.759 185.717 317.707 184.916 314.672 184.118C313.866 183.907 313.062 183.696 312.259 183.506C308.426 182.599 304.092 182.248 300.819 184.433ZM192.433 118.819C192.993 118.021 194.198 117.58 194.975 118.173C199.526 121.648 205.853 122.675 211.276 120.817C213.007 120.224 214.976 121.452 215.69 123.131C216.405 124.81 216.117 126.755 215.489 128.468C213.577 133.684 208.433 137.564 202.876 137.982C197.318 138.399 191.648 135.331 188.973 130.46C188.148 128.956 187.872 126.599 189.465 125.951C191.054 125.304 191.508 123.312 191.68 121.61L191.685 121.559C191.782 120.605 191.883 119.604 192.433 118.819ZM343.997 160.574C343.357 160.747 342.68 160.916 342.039 160.746C341.398 160.575 340.833 159.933 340.994 159.292C346.727 158.385 352.261 156.251 357.112 153.075C359.001 151.838 361.007 149.683 360.053 147.64C359.421 146.286 357.724 145.765 356.226 145.826C354.057 145.914 352.035 146.884 350.085 147.834L339.566 152.961C339.077 152.384 339.28 151.456 339.797 150.904C340.296 150.371 341.003 150.099 341.686 149.835L341.762 149.805C346.537 147.958 350.986 145.277 354.845 141.921C355.975 140.938 355.388 138.912 354.098 138.15C352.808 137.387 351.186 137.538 349.711 137.812C345.433 138.608 341.316 140.253 337.67 142.622C335.876 143.788 333.328 145.08 331.861 143.525C335.822 139.524 341.253 137.388 346.514 135.361L356.695 131.438C357.403 131.165 358.168 130.889 358.903 131.076C359.904 131.331 360.49 132.339 360.943 133.264C363.514 138.51 365.408 144.087 366.561 149.811C366.728 150.642 366.867 151.56 366.438 152.291C366.049 152.954 365.29 153.293 364.578 153.587C357.876 156.349 350.997 158.684 343.997 160.574ZM295.848 160.925C295.466 161.329 294.898 161.486 294.359 161.627L200.867 186.018C202.318 182.524 206.584 181.329 210.292 180.523C236.087 174.914 261.356 167.178 286.598 159.45C288.034 159.01 289.469 158.571 290.905 158.132C292.15 157.751 293.506 157.372 294.727 157.827C295.947 158.282 296.74 159.979 295.848 160.925ZM169.311 67.903C169.884 66.0347 170.82 63.4531 172.285 62.1552C173.032 61.4935 174.044 60.7876 174.943 61.2228C175.509 61.4963 175.786 62.1288 176.017 62.7108C176.364 63.5812 176.859 64.7483 177.354 65.9154C177.849 67.0824 178.344 68.2495 178.69 69.1199C179.177 70.3408 179.647 72.2381 178.755 72.8547C174.943 75.4914 175.811 85.1174 177.518 89.5464C177.925 90.6039 178.275 92.7708 177.924 94.3506C177.572 95.9304 175.811 97.3515 174.37 96.6047C173.543 96.1763 172.233 93.9059 171.758 93.0836C171.714 93.0085 171.678 92.9454 171.65 92.8969C164.627 80.9238 168.52 70.1083 169.221 68.1612C169.264 68.0404 169.295 67.9537 169.311 67.903ZM200.119 197.546C206.362 196.394 212.541 194.896 218.618 193.061C218.712 193.032 218.806 193.004 218.9 192.975C220.792 192.403 222.711 191.822 224.685 191.831C224.437 194.944 222.702 197.828 220.321 199.859C217.941 201.89 214.96 203.126 211.907 203.83C209.592 204.363 207.15 204.603 204.85 204.011C202.549 203.418 200.404 201.886 199.529 199.685C199.215 198.896 199.282 197.701 200.119 197.546ZM207.859 178.976C203.877 179.538 199.669 179.25 196.084 177.433C195.327 177.049 195.719 175.895 196.254 175.237C199.006 171.853 203.174 169.652 207.529 169.282C211.883 168.912 216.365 170.379 219.652 173.249C220.195 173.723 220.748 174.474 220.381 175.094C220.188 175.42 219.801 175.571 219.443 175.699C215.658 177.052 211.841 178.414 207.859 178.976ZM195.592 142.174C192.051 141.068 189.281 138.26 187.257 135.162C186.03 133.284 185.026 131.277 184.021 129.27C183.369 127.966 182.716 126.661 182.002 125.391C183.314 125.174 184.59 126.065 185.318 127.174C185.837 127.966 186.152 128.862 186.467 129.759C186.593 130.118 186.72 130.477 186.859 130.83C189.476 137.452 197.272 141.424 204.293 140.111C211.314 138.798 217.007 132.636 218.224 125.623C218.352 124.886 218.585 123.975 219.321 123.828C220.116 124.49 220.152 125.687 220.011 126.71C218.993 134.135 212.237 139.722 205.02 141.832C201.957 142.727 198.637 143.126 195.592 142.174ZM335.935 146.62C340.359 143.18 345.573 140.754 351.06 139.585C351.719 139.445 352.708 139.589 352.648 140.258C352.629 140.469 352.492 140.649 352.356 140.812C349.63 144.088 345.64 146.005 341.779 147.825C340.697 148.334 339.556 148.856 338.362 148.783C337.168 148.709 335.933 147.812 335.935 146.62ZM355.079 148.269C355.647 148.088 356.269 147.918 356.828 148.127C357.387 148.335 357.756 149.1 357.363 149.547C353.976 153.4 348.909 155.301 343.965 156.701C342.672 157.067 340.771 157.057 340.551 155.736C344.932 152.465 349.864 149.929 355.079 148.269ZM222.082 91.8291C222.368 90.0662 222.709 87.9598 222.709 86.5975C222.709 84.7259 222.994 82.4369 224.746 81.7704C226.425 81.1315 228.322 82.6644 228.645 84.4259C228.968 86.1874 226.971 93.2995 225.98 94.7929C225.527 95.4754 225 96.1562 224.254 96.4993C223.508 96.8424 222.493 96.7313 222.037 96.0511C221.799 95.697 221.746 95.2548 221.705 94.8307C221.664 94.4055 221.856 93.225 222.082 91.8291ZM222.122 69.6755C222.209 69.8007 222.247 69.9529 222.282 70.1014C223.01 73.1781 223.292 76.3588 223.118 79.5149C222.283 79.8888 221.592 78.7792 221.347 77.9009L220.298 74.1443C219.886 72.6658 219.553 70.8565 220.655 69.7841C221.055 69.3948 221.803 69.2181 222.122 69.6755ZM177.98 103.15C176.896 102.403 176.017 101.798 176.017 99.9516C176.017 97.7668 178.387 95.6376 178.903 96.0511C180.781 97.5545 184.155 105.01 184.324 107.404C182.911 106.829 181.87 106.045 179.969 104.614C179.555 104.302 179.1 103.96 178.592 103.583C178.384 103.428 178.179 103.287 177.98 103.15ZM190.302 188.323L194.131 187.517C194.608 187.416 195.189 187.347 195.508 187.715C196.124 188.423 194.911 189.319 193.971 189.336C192.684 189.36 191.393 189.004 190.302 188.323ZM306.532 153.269C307.225 153.347 307.81 154.228 307.355 154.754L307.312 154.801C306.714 155.257 306.026 155.737 305.281 155.63C304.536 155.523 304.011 154.436 304.628 154.006C305.199 153.607 305.84 153.19 306.532 153.269ZM312.041 164.675L311.171 164.548L311.086 164.54L309.242 161.714C310.859 161.192 312.661 163.099 312.041 164.675ZM307.992 159.575C307.283 159.609 306.715 158.729 307.039 158.101C307.364 157.472 308.413 157.422 308.797 158.016C309.181 158.61 308.7 159.541 307.992 159.575ZM211.344 67.4051L204.688 70.5453C199.603 72.9444 193.215 72.3228 188.692 68.9887C188.053 68.8411 187.5 69.6017 187.608 70.2457C187.716 70.8897 188.241 71.3769 188.767 71.7657C192.414 74.459 197.4 74.7964 201.799 73.6802C206.198 72.564 210.143 70.1608 213.965 67.7206C213.688 66.7541 212.255 66.975 211.344 67.4051ZM205.086 81.974C204.539 82.4616 203.592 81.7997 203.601 81.0685C203.61 80.3374 204.205 79.7496 204.819 79.3486C207.392 77.6668 211.081 77.9278 213.39 79.9551C212.88 80.7897 211.689 80.5962 210.686 80.4332L210.686 80.4332L210.58 80.4161C210.538 80.4092 210.496 80.4025 210.454 80.396C208.549 80.0975 206.523 80.6933 205.086 81.974ZM192.759 84.7368C193.632 84.5382 194.556 83.8723 194.473 82.9837C194.403 82.2346 193.647 81.7373 192.92 81.5356C191.205 81.0602 189.235 81.6782 188.103 83.0471C186.972 84.4161 186.739 86.4602 187.536 88.0464C187.919 87.7049 188.232 87.2843 188.543 86.866C189.004 86.2452 189.461 85.6294 190.141 85.2845C190.656 85.0232 191.233 84.9538 191.812 84.884C192.13 84.8456 192.449 84.8072 192.759 84.7368ZM210.14 94.5973C211.197 94.5823 211.909 93.4952 212.175 92.4764C212.72 90.3814 212.165 88.0331 210.737 86.4015C210.091 85.6628 208.99 85.0482 208.168 85.5859C207.913 85.7523 207.731 86.0077 207.583 86.2731C206.552 88.1303 207.069 90.4525 207.87 92.419C208.292 93.4525 209.021 94.6133 210.14 94.5973ZM196.787 94.6017L196.472 91.3347C196.352 90.0914 196.086 88.6297 194.948 88.1039C193.395 87.3855 191.754 89.1066 191.347 90.764C190.91 92.544 191.162 94.4831 192.041 96.0931C192.838 97.5533 194.821 98.7767 196.088 97.6956C196.928 96.9793 196.892 95.6981 196.787 94.6017ZM194.163 339.473C202.919 339.213 211.675 338.957 220.431 338.704C221.393 338.677 222.425 338.668 223.224 339.204C223.964 339.7 224.369 340.649 224.214 341.525L198.51 342.007C197.555 342.025 196.567 342.037 195.688 341.663C194.81 341.29 194.068 340.42 194.163 339.473ZM203.157 105.175C202.219 104.908 202.661 103.52 203.102 102.652C204.528 99.8497 203.725 96.4126 202.297 93.611L202.262 93.5416L202.262 93.5415C201.945 92.9208 201.606 92.2579 201.719 91.5746C201.836 90.8657 202.732 90.2761 203.293 90.7281C203.461 90.8641 203.564 91.0631 203.661 91.2562C204.733 93.3838 205.784 95.5709 206.133 97.926C206.482 100.281 206.033 102.866 204.412 104.616C204.084 104.969 203.622 105.307 203.157 105.175ZM204.557 114.101C208.952 113.399 212.477 109.134 212.327 104.702C212.318 104.438 212.294 104.164 212.158 103.938C211.776 103.303 210.738 103.451 210.249 104.007C209.845 104.464 209.692 105.07 209.541 105.668C209.509 105.797 209.476 105.925 209.442 106.051C208.854 108.185 207.392 110.066 205.466 111.166C205.372 111.22 205.276 111.273 205.18 111.325C204.617 111.635 204.038 111.953 203.743 112.511C203.398 113.163 203.826 114.217 204.557 114.101ZM231.392 381.046C231.58 386.31 232.167 403.015 231.481 406.046C231.354 406.61 231.146 407.252 230.604 407.457C229.525 407.866 228.892 406.251 228.879 405.102C228.771 395.786 228.662 384.841 228.553 373.895L228.553 373.879C228.445 362.928 228.336 351.977 228.228 342.657C230.016 342.657 230.604 348.946 230.604 353.007C230.604 366.653 231.392 381.046 231.392 381.046ZM169.838 265.301C169.576 265.149 169.272 264.996 168.959 264.84C167.713 264.216 166.342 263.531 167.064 262.565C186.138 263.388 205.257 263.197 224.311 261.993C229.707 261.652 235.795 260.866 239.002 256.528C239.131 256.355 239.255 256.175 239.379 255.995C239.805 255.377 240.234 254.756 240.861 254.355C241.671 253.838 242.967 253.903 243.372 254.773C242.8 259.422 238.426 263.298 233.725 263.321C231.668 263.331 230.971 266.007 230.71 268.04C230.449 270.073 229.042 272.678 227.111 271.97C227.598 270.303 227.914 268.586 228.051 266.855C228.097 266.275 228.085 265.601 227.634 265.231C227.284 264.943 226.787 264.942 226.333 264.955L175.989 266.386C175.67 266.395 175.318 266.417 175.09 266.639C174.812 266.911 174.837 267.357 174.883 267.743L178.456 298.097C178.534 298.765 178.807 299.618 179.481 299.621L208.021 299.778C209.538 299.786 211.698 300.942 210.771 302.139C210.391 302.628 209.679 302.673 209.059 302.676L180.014 302.793C178.787 302.798 178.44 304.459 178.485 305.68L178.948 318.171C175.459 315.693 175.219 310.721 175.195 306.453C175.124 294.013 174.008 281.581 171.863 269.326C171.595 267.797 171.185 266.082 169.838 265.301Z" fill="#00160A"/>
<path fill-rule="evenodd" clip-rule="evenodd" d="M234.462 324.266C235.657 321.565 238.441 319.636 241.398 319.459C242.166 319.413 243.039 319.526 243.508 320.134C243.978 320.742 243.575 321.897 242.811 321.797C240.978 321.558 239.149 322.489 237.863 323.812C236.577 325.135 235.738 326.816 234.919 328.467C233.743 327.507 233.848 325.652 234.462 324.266Z" fill="#00160A"/>
<path fill-rule="evenodd" clip-rule="evenodd" d="M365.057 65.8447C366.559 65.9862 367.952 65.1182 369.198 64.2684C372.661 61.9056 376.391 58.6842 376.164 54.5065C376.091 53.1797 375.612 51.9314 375.132 50.6817C374.926 50.1469 374.72 49.6118 374.547 49.0702C373.639 46.2417 373.605 43.2594 373.572 40.2695C373.544 37.817 373.517 35.3594 373.006 32.9772C372.824 32.1229 372.457 31.1524 371.616 30.9095C371.142 30.7726 370.636 30.9117 370.163 31.0502L355.034 35.4764C352.186 36.3096 351.576 39.9962 351.494 42.9543L351.272 51.0028C350.373 51.1151 349.519 50.7637 348.665 50.4123C348.34 50.2782 348.014 50.1441 347.686 50.0357C344.453 48.969 340.544 50.7627 339.254 53.9046C337.964 57.0465 339.489 61.0585 342.544 62.558C345.599 64.0575 349.719 62.8164 351.429 59.881C352.591 57.8878 352.66 55.4677 352.698 53.1626L352.77 48.8345C352.796 47.217 354.616 46.32 356.155 45.8058C360.893 44.2218 365.676 42.7681 370.495 41.4467C370.971 41.3161 371.563 41.2181 371.888 41.5886C372.064 41.7888 372.102 42.0707 372.133 42.335L372.792 48.0015C372.89 48.8419 372.795 49.9719 371.966 50.1501C367.96 51.0105 364.399 53.7381 362.533 57.3754C361.738 58.925 361.236 60.7048 361.588 62.4094C361.94 64.1141 363.319 65.6811 365.057 65.8447ZM371.176 33.4303C371.346 33.6015 371.394 33.8536 371.435 34.09L371.894 36.75C372.016 37.4526 372.131 38.2073 371.825 38.8523C371.341 39.871 370.058 40.1775 368.945 40.3964C366.374 40.902 363.836 41.573 361.352 42.4038C359.276 43.0982 357.24 43.9033 355.204 44.7081C355.032 44.7761 354.86 44.8441 354.688 44.9121C354.205 45.1028 353.539 45.2403 353.263 44.8036C353.194 44.6942 353.165 44.5649 353.141 44.438C352.655 41.8586 353.85 39.045 356.05 37.5886C357.261 36.7864 358.694 36.3928 360.099 36.0114L369.974 33.3307C370.382 33.2199 370.88 33.1308 371.176 33.4303ZM351.252 54.6419C351.211 57.135 350.608 59.9854 348.39 61.192C346.631 62.1492 344.334 61.6891 342.737 60.4868C340.862 59.0749 339.832 56.2632 341.203 54.3714C341.774 53.5833 342.665 53.0726 343.588 52.7384C345.709 51.9708 348.131 52.0479 350.197 52.9488C350.526 53.0926 350.863 53.2703 351.053 53.5714C351.251 53.8838 351.258 54.2739 351.252 54.6419ZM86.924 60.2124C87.1802 60.9992 88.2966 60.9691 89.1048 60.7801L96.4531 59.0616C96.248 57.1538 95.8763 55.2638 95.3433 53.42C95.1863 52.8766 94.9969 52.3083 94.5694 51.9364C93.9073 51.3604 92.9165 51.4401 92.045 51.5531L80.7584 53.0171C79.9835 53.1176 78.9493 53.6197 79.2442 54.3407C81.8282 60.6578 83.8662 67.1965 85.3283 73.8607C85.6081 75.1356 85.561 76.9258 84.2817 77.2054C80.5769 78.0153 77.4071 80.9125 76.2785 84.5206C75.9313 85.6304 75.7737 86.8632 76.2228 87.9361C76.4662 88.5176 76.8746 89.0177 77.3325 89.4523C79.5297 91.5381 83.0344 92.1181 85.7904 90.8521C88.5465 89.5861 90.3798 86.554 90.2148 83.5346C90.1525 82.3941 89.834 81.2849 89.5175 80.1872L82.3026 55.1617L91.8554 54.4148C92.815 54.4684 93.2204 55.8269 92.7135 56.6404C92.2066 57.4539 91.1994 57.7923 90.2572 57.9811C90.1215 58.0083 89.9846 58.034 89.8472 58.0598C89.0308 58.213 88.2002 58.3689 87.5382 58.8555C87.1096 59.1704 86.7596 59.7077 86.924 60.2124Z" fill="#C986FF"/>
<path fill-rule="evenodd" clip-rule="evenodd" d="M232.888 316.172C232.601 316.543 231.954 316.437 231.678 316.058C231.401 315.678 231.426 315.153 231.577 314.709C231.846 313.914 232.456 313.282 233.096 312.736C234.702 311.363 236.615 310.348 238.655 309.786C239.459 309.564 240.397 309.435 241.062 309.937C241.728 310.438 241.621 311.776 240.79 311.85C237.711 312.125 234.774 313.731 232.888 316.172Z" fill="#00160A"/>
</svg>
