<svg width="205" height="299" viewBox="0 0 205 299" fill="none" xmlns="http://www.w3.org/2000/svg">
<path d="M46.8644 272.086C52.1187 267.745 44.441 258.882 44.441 258.882L4.32512 244.999C4.90346 245.641 -5.08825 253.202 -5.49601 256.651C-5.90376 260.1 41.6102 276.426 46.8644 272.086Z" fill="#FFB61D"/>
<path d="M144.889 190.577C142.6 193.899 145.386 199.788 149.725 202.777C154.065 205.766 162.501 206.604 164.789 203.283C167.077 199.962 162.35 193.738 158.011 190.749C153.672 187.76 147.177 187.256 144.889 190.577Z" fill="#FFB61D"/>
<path d="M-30.2913 160.458C-35.0557 173.37 -34.861 187.767 -29.733 201.756C-24.6049 215.746 -17.866 229.872 -4.6443 240.031C8.57745 250.191 27.1098 257.36 43.7876 260.127C60.4654 262.894 68.8407 265.398 83.1246 259.801C97.4084 254.205 113.959 230.784 112.175 214.93C122.409 213.193 147.537 213.647 155.621 191.761C159.776 174.536 154.728 156.658 143.003 145.253C131.279 133.848 116.092 128.945 94.665 136.396C73.2384 143.847 62.9647 180.627 62.9647 180.627L-30.2913 160.458Z" fill="#FFF48A"/>
<ellipse cx="2.72599" cy="2.72599" rx="2.72599" ry="2.72599" transform="matrix(-0.972117 -0.234496 -0.234496 0.972117 135.559 164.488)" fill="#4B0088"/>
<path d="M-14.2991 152.176C-15.0051 155.103 -12.931 159.516 -9.27218 160.399C-5.61332 161.281 2.65274 163.275 4.25083 156.65C5.5293 151.35 -2.73676 149.356 -6.39563 148.474C-10.0545 147.591 -13.593 149.248 -14.2991 152.176Z" fill="#C986FF"/>
<path d="M-1.13911 144.133C-8.97293 160.471 -5.42908 185.161 26.3707 192.832C50.4925 191.64 59.6293 177.019 74.3842 162.351C91.0575 139.733 80.6157 111.977 55.7355 105.975C30.8553 99.9738 6.69472 127.796 -1.13911 144.133Z" fill="#F0C1E1"/>
<path d="M63.2771 138.641C60.3542 144.946 68.1241 165.047 78.0848 170.254C89.3704 175.781 101.295 178.657 103.533 169.381C105.651 160.6 102.068 152.203 94.3914 143.341C75.3821 123.334 65.3954 129.86 63.2771 138.641Z" fill="#F0C1E1"/>
<path d="M28.0612 197.446C31.2767 210.045 42.18 221.845 53.3757 220.377C70.8736 217.588 72.4259 205.343 69.4568 191.729C67.6955 178.294 57.1919 168.593 45.9963 170.061C34.8006 171.529 17.7941 178.751 28.0612 197.446Z" fill="#F0C1E1"/>
<ellipse cx="21.8079" cy="21.8079" rx="21.8079" ry="21.8079" transform="matrix(-0.972117 -0.234496 -0.234496 0.972117 75.5029 18.2056)" fill="#F0C1E1"/>
<ellipse cx="16.3559" cy="16.3559" rx="16.3559" ry="16.3559" transform="matrix(-0.972117 -0.234496 -0.234496 0.972117 68.9258 22.2272)" fill="#C986FF"/>
<ellipse cx="21.8079" cy="21.8079" rx="21.8079" ry="21.8079" transform="matrix(-0.972117 -0.234496 -0.234496 0.972117 166.336 48.5288)" fill="#F0C1E1"/>
<ellipse cx="16.3559" cy="16.3559" rx="16.3559" ry="16.3559" transform="matrix(-0.972117 -0.234496 -0.234496 0.972117 159.756 52.5507)" fill="#C986FF"/>
<g filter="url(#filter0_d_211_1398)">
<path d="M19.3607 64.9525C12.653 92.7598 34.6739 117.719 71.454 127.994C117.509 140.505 136.882 124.129 143.59 96.3214C150.298 68.5141 128.447 39.3893 94.7859 31.2695C61.1245 23.1496 26.0685 37.1452 19.3607 64.9525Z" fill="#F0C1E1"/>
</g>
<ellipse cx="4.08899" cy="4.08899" rx="4.08899" ry="4.08899" transform="matrix(-0.972117 -0.234496 -0.234496 0.972117 105.758 78.7832)" fill="#4B0088"/>
<ellipse cx="4.08899" cy="4.08899" rx="4.08899" ry="4.08899" transform="matrix(-0.972117 -0.234496 -0.234496 0.972117 79.8975 69.7405)" fill="#4B0088"/>
<ellipse cx="16.8119" cy="8.84692" rx="16.8119" ry="8.84692" transform="matrix(-0.937868 -0.346993 -0.356375 0.934343 102.767 86.8934)" fill="#FFFBD7"/>
<ellipse cx="2.726" cy="2.726" rx="2.726" ry="2.726" transform="matrix(-0.972117 -0.234496 -0.234496 0.972117 87.9404 82.8971)" fill="#FF9494"/>
<path fill-rule="evenodd" clip-rule="evenodd" d="M57.5251 70.0928C60.3211 71.8478 63.8656 73.6974 64.3218 76.8196C64.7818 79.9676 62.791 82.2122 60.8175 84.4467C58.7987 86.7326 56.0792 89.493 52.8866 89.7676C49.532 90.0563 46.4533 87.5804 43.6179 85.3795C40.3939 82.8769 36.0531 80.3837 35.8472 76.5412C35.6429 72.7281 39.5396 70.483 42.7238 68.6928C45.018 67.4029 47.8521 67.9648 50.6337 68.2279C53.0522 68.4566 55.383 68.7483 57.5251 70.0928Z" fill="#FFB1B1"/>
<path d="M58.0732 75.8162L56.1757 83.7709" stroke="#FFFCE1" stroke-width="8" stroke-linecap="round"/>
<path d="M42.6904 73.0007L41.3346 78.9435" stroke="#FFFCE1" stroke-width="8" stroke-linecap="round"/>
<path d="M50.4609 74.875L48.9923 80.8307" stroke="#FFFCE1" stroke-width="8" stroke-linecap="round"/>
<path fill-rule="evenodd" clip-rule="evenodd" d="M114.285 92.6262C111.026 92.098 107.143 91.1466 104.739 93.1902C102.315 95.2507 102.328 98.2509 102.334 101.232C102.341 104.282 102.561 108.151 104.777 110.465C107.106 112.897 111.053 113.07 114.635 113.289C118.709 113.539 123.615 114.533 126.307 111.783C128.978 109.054 127.534 104.795 126.325 101.348C125.454 98.8645 122.954 97.4151 120.692 95.776C118.724 94.3508 116.781 93.0308 114.285 92.6262Z" fill="#FFB1B1"/>
<path d="M110.093 96.563L106.266 103.79" stroke="#FFFCE1" stroke-width="8" stroke-linecap="round"/>
<path d="M123.506 104.605L120.601 109.964" stroke="#FFFCE1" stroke-width="8" stroke-linecap="round"/>
<path d="M116.433 100.882L113.603 106.325" stroke="#FFFCE1" stroke-width="8" stroke-linecap="round"/>
<defs>
<filter id="filter0_d_211_1398" x="14.1631" y="24.9792" width="134.637" height="111.276" filterUnits="userSpaceOnUse" color-interpolation-filters="sRGB">
<feFlood flood-opacity="0" result="BackgroundImageFix"/>
<feColorMatrix in="SourceAlpha" type="matrix" values="0 0 0 0 0 0 0 0 0 0 0 0 0 0 0 0 0 0 127 0" result="hardAlpha"/>
<feOffset/>
<feGaussianBlur stdDeviation="2"/>
<feComposite in2="hardAlpha" operator="out"/>
<feColorMatrix type="matrix" values="0 0 0 0 0 0 0 0 0 0 0 0 0 0 0 0 0 0 0.1 0"/>
<feBlend mode="normal" in2="BackgroundImageFix" result="effect1_dropShadow_211_1398"/>
<feBlend mode="normal" in="SourceGraphic" in2="effect1_dropShadow_211_1398" result="shape"/>
</filter>
</defs>
</svg>
