<svg width="133" height="150" viewBox="0 0 133 150" fill="none" xmlns="http://www.w3.org/2000/svg">
<path d="M78.7309 136.043C76.1037 133.872 79.9426 129.441 79.9426 129.441L100.001 122.499C99.7114 122.82 104.707 126.601 104.911 128.325C105.115 130.05 81.358 138.213 78.7309 136.043Z" fill="#FFB61D"/>
<path d="M29.7183 95.2886C30.8624 96.9493 29.4697 99.8939 27.3 101.389C25.1303 102.883 20.9122 103.302 19.7682 101.641C18.6241 99.9807 20.9874 96.8691 23.1571 95.3745C25.3268 93.8799 28.5743 93.6279 29.7183 95.2886Z" fill="#FFB61D"/>
<path d="M117.309 80.229C119.691 86.6847 119.593 93.8836 117.029 100.878C114.465 107.873 111.096 114.936 104.485 120.016C97.8742 125.096 88.608 128.68 80.2691 130.063C71.9302 131.447 67.7425 132.699 60.6006 129.9C53.4587 127.102 45.1833 115.392 46.0753 107.465C40.9583 106.596 28.3943 106.823 24.3526 95.8805C22.2751 87.2681 24.7989 78.3287 30.6611 72.6265C36.5234 66.9242 44.1171 64.4723 54.8304 68.1979C65.5437 71.9234 70.6805 90.3132 70.6805 90.3132L117.309 80.229Z" fill="#353535"/>
<ellipse cx="36.0279" cy="83.2492" rx="1.363" ry="1.363" transform="rotate(-13.5619 36.0279 83.2492)" fill="white"/>
<path d="M109.312 76.0876C109.665 77.5511 108.628 79.7578 106.798 80.1991C104.969 80.6404 100.836 81.6374 100.037 78.3249C99.3975 75.6749 103.53 74.6779 105.36 74.2366C107.189 73.7953 108.959 74.624 109.312 76.0876Z" fill="#FFB61D"/>
<path d="M102.732 72.0663C106.649 80.2351 104.877 92.5802 88.9768 96.4156C76.9159 95.8197 72.3475 88.5092 64.97 81.1753C56.6334 69.8665 61.8543 55.9883 74.2944 52.9875C86.7345 49.9867 98.8148 63.8976 102.732 72.0663Z" fill="#FFF165"/>
<path d="M70.5238 69.3202C71.9853 72.4727 68.1003 82.5234 63.12 85.1268C57.4771 87.8901 51.5147 89.3284 50.3959 84.6905C49.3368 80.2998 51.1282 76.1013 54.9667 71.6704C64.4713 61.6667 69.4647 64.9296 70.5238 69.3202Z" fill="#FFF165"/>
<path d="M88.1317 98.7226C86.524 105.022 81.0723 110.922 75.4745 110.188C66.7255 108.794 65.9494 102.671 67.4339 95.8644C68.3146 89.147 73.5664 84.2964 79.1642 85.0303C84.7621 85.7641 93.2653 89.3753 88.1317 98.7226Z" fill="#FFF165"/>
<ellipse cx="77.5685" cy="17.1458" rx="10.904" ry="10.904" transform="rotate(-13.5619 77.5685 17.1458)" fill="#FFF165"/>
<ellipse cx="77.5679" cy="17.1458" rx="8.17798" ry="8.17797" transform="rotate(-13.5619 77.5679 17.1458)" fill="#CDBB00"/>
<ellipse cx="32.152" cy="32.3073" rx="10.904" ry="10.904" transform="rotate(-13.5619 32.152 32.3073)" fill="#FFF165"/>
<ellipse cx="32.1523" cy="32.3075" rx="8.17798" ry="8.17797" transform="rotate(-13.5619 32.1523 32.3075)" fill="#CDBB00"/>
<g filter="url(#filter0_d_211_1431)">
<path d="M92.4823 32.4761C95.8362 46.3798 84.8257 58.8596 66.4357 63.9967C43.4082 70.2525 33.7215 62.0643 30.3676 48.1606C27.0138 34.257 37.9389 19.6946 54.7697 15.6347C71.6004 11.5747 89.1284 18.5725 92.4823 32.4761Z" fill="#FFF165"/>
</g>
<ellipse cx="51.7511" cy="40.8997" rx="2.0445" ry="2.04449" transform="rotate(-13.5619 51.7511 40.8997)" fill="#4B0088"/>
<ellipse cx="64.6808" cy="36.3783" rx="2.0445" ry="2.04449" transform="rotate(-13.5619 64.6808 36.3783)" fill="#4B0088"/>
<ellipse cx="8.40598" cy="4.42346" rx="8.40598" ry="4.42346" transform="matrix(0.937868 -0.346993 0.356375 0.934343 50.7788 43.4467)" fill="#FFFBD7"/>
<ellipse cx="59.8365" cy="42.4539" rx="1.363" ry="1.363" transform="rotate(-13.5619 59.8365 42.4539)" fill="#FF9494"/>
<path fill-rule="evenodd" clip-rule="evenodd" d="M73.4006 35.0463C72.0025 35.9238 70.2303 36.8486 70.0022 38.4097C69.7722 39.9837 70.7676 41.106 71.7543 42.2232C72.7637 43.3662 74.1235 44.7464 75.7198 44.8837C77.3971 45.028 78.9364 43.7901 80.3541 42.6896C81.9662 41.4383 84.1366 40.1917 84.2395 38.2705C84.3417 36.3639 82.3933 35.2414 80.8012 34.3463C79.6541 33.7013 78.237 33.9823 76.8463 34.1138C75.637 34.2282 74.4716 34.374 73.4006 35.0463Z" fill="#FFB1B1"/>
<path d="M73.126 37.908L74.0748 41.8854" stroke="#FFFCE1" stroke-width="4" stroke-linecap="round"/>
<path d="M80.8174 36.5003L81.4953 39.4717" stroke="#FFFCE1" stroke-width="4" stroke-linecap="round"/>
<path d="M76.9326 37.4374L77.6669 40.4153" stroke="#FFFCE1" stroke-width="4" stroke-linecap="round"/>
<path fill-rule="evenodd" clip-rule="evenodd" d="M45.0198 46.313C46.6491 46.0489 48.5907 45.5732 49.7928 46.595C51.0048 47.6252 50.9983 49.1253 50.995 50.6159C50.9916 52.1408 50.8818 54.0752 49.7736 55.2324C48.6092 56.4482 46.6358 56.535 44.8444 56.6446C42.8076 56.7693 40.3545 57.2662 39.0086 55.8913C37.6729 54.5269 38.395 52.3974 38.9996 50.6739C39.4352 49.4321 40.685 48.7074 41.8163 47.8879C42.8 47.1753 43.7715 46.5153 45.0198 46.313Z" fill="#FFB1B1"/>
<path d="M47.1162 48.2813L49.0299 51.8948" stroke="#FFFCE1" stroke-width="4" stroke-linecap="round"/>
<path d="M40.4092 52.3025L41.8621 54.9817" stroke="#FFFCE1" stroke-width="4" stroke-linecap="round"/>
<path d="M43.9458 50.441L45.3606 53.1622" stroke="#FFFCE1" stroke-width="4" stroke-linecap="round"/>
<defs>
<filter id="filter0_d_211_1431" x="25.7627" y="10.4896" width="71.3184" height="59.6379" filterUnits="userSpaceOnUse" color-interpolation-filters="sRGB">
<feFlood flood-opacity="0" result="BackgroundImageFix"/>
<feColorMatrix in="SourceAlpha" type="matrix" values="0 0 0 0 0 0 0 0 0 0 0 0 0 0 0 0 0 0 127 0" result="hardAlpha"/>
<feOffset/>
<feGaussianBlur stdDeviation="2"/>
<feComposite in2="hardAlpha" operator="out"/>
<feColorMatrix type="matrix" values="0 0 0 0 0 0 0 0 0 0 0 0 0 0 0 0 0 0 0.1 0"/>
<feBlend mode="normal" in2="BackgroundImageFix" result="effect1_dropShadow_211_1431"/>
<feBlend mode="normal" in="SourceGraphic" in2="effect1_dropShadow_211_1431" result="shape"/>
</filter>
</defs>
</svg>
